<svg xmlns="http://www.w3.org/2000/svg" width="41.556" height="33.772" viewBox="0 0 41.556 33.772">
  <path id="Path_100" data-name="Path 100" d="M0,33.6a24.132,24.132,0,0,0,13.069,3.831c15.83,0,24.772-13.37,24.234-25.362a17.3,17.3,0,0,0,4.254-4.413,17.031,17.031,0,0,1-4.9,1.342,8.536,8.536,0,0,0,3.748-4.716A17.094,17.094,0,0,1,35,6.348a8.532,8.532,0,0,0-14.529,7.776A24.2,24.2,0,0,1,2.894,5.216,8.536,8.536,0,0,0,5.532,16.6a8.492,8.492,0,0,1-3.863-1.067A8.535,8.535,0,0,0,8.508,24a8.531,8.531,0,0,1-3.849.145,8.53,8.53,0,0,0,7.963,5.921A17.134,17.134,0,0,1,0,33.6" transform="translate(0 -3.656)" fill="#ededeb"/>
</svg>
