<svg xmlns="http://www.w3.org/2000/svg" width="35.352" height="34.504" viewBox="0 0 35.352 34.504">
  <path id="Path_115" data-name="Path 115" d="M560.386,3.031c.251.042.5.1.754.123a17.065,17.065,0,0,1,9.806,4.285,17.006,17.006,0,0,1,5.583,9.44A17.247,17.247,0,0,1,574.378,29.9a17.309,17.309,0,0,1-9.362,7.534c-.8.273-1.33-.091-1.333-.927-.005-1.53,0-3.06,0-4.59a4.944,4.944,0,0,0-.591-2.655c-.155-.252-.35-.479-.54-.735.581-.1,1.173-.187,1.758-.313a8.011,8.011,0,0,0,4.41-2.38,6.8,6.8,0,0,0,1.5-3.1,10.246,10.246,0,0,0,.11-4.779A6.223,6.223,0,0,0,568.9,15.25a.368.368,0,0,1-.083-.426,6.02,6.02,0,0,0-.212-4.3.362.362,0,0,0-.241-.179,2.949,2.949,0,0,0-1.767.328c-.9.422-1.77.912-2.661,1.357a.8.8,0,0,1-.507.084,16.615,16.615,0,0,0-8.288,0,.718.718,0,0,1-.5-.089,12.764,12.764,0,0,0-3.621-1.637c-.011,0-.021-.008-.032-.011-.837-.19-1-.091-1.236.719a6.018,6.018,0,0,0,.013,3.793.387.387,0,0,1-.069.322,7.3,7.3,0,0,0-1.624,5.827,10.132,10.132,0,0,0,.975,3.6,6.313,6.313,0,0,0,3.759,3.149c1.029.363,2.12.551,3.11.8-.217.393-.486.864-.736,1.345a1.062,1.062,0,0,0-.13.46c0,.436-.259.614-.635.712a4.6,4.6,0,0,1-2.579.111,3.422,3.422,0,0,1-1.923-1.639,3.811,3.811,0,0,0-2.227-1.84,3.424,3.424,0,0,0-1.145-.052c-.236.014-.305.2-.148.4a2.129,2.129,0,0,0,.521.54,4.788,4.788,0,0,1,1.905,2.375,4.166,4.166,0,0,0,.932,1.508,3.988,3.988,0,0,0,2.593.965c.834.037,1.671.008,2.539.008,0,0,.009.1.011.2.011.943.028,1.887.03,2.83a.912.912,0,0,1-1.308.954,17.1,17.1,0,0,1-6.884-4.305,17.913,17.913,0,0,1-4.172-6.7,18.212,18.212,0,0,1-.86-4.031.867.867,0,0,0-.076-.2V19.251c.05-.308.105-.615.149-.923a17.123,17.123,0,0,1,2.619-7.109,17.435,17.435,0,0,1,12.326-7.984c.444-.07.889-.136,1.334-.2h.829l.763.06.273-.06Z" transform="translate(-541.611 -3.031)" fill="#ededeb"/>
</svg>
