<svg id="Grupo_324" data-name="Grupo 324" xmlns="http://www.w3.org/2000/svg" xmlns:xlink="http://www.w3.org/1999/xlink" width="36.982" height="40" viewBox="0 0 36.982 40">
  <defs>
    <clipPath id="clip-path">
      <rect id="Retângulo_154" data-name="Retângulo 154" width="36.982" height="40" fill="#0a0a0a"/>
    </clipPath>
  </defs>
  <g id="Grupo_323" data-name="Grupo 323" clip-path="url(#clip-path)">
    <path id="Caminho_593" data-name="Caminho 593" d="M32.852,14.95v.656q0,10.841,0,21.682a3.564,3.564,0,0,1-.09.927,1.862,1.862,0,0,1-1.906,1.339c-1.519.008-3.039,0-4.557,0q-10.033,0-20.063,0a1.9,1.9,0,0,1-2.01-1.313,3.329,3.329,0,0,1-.1-.925q-.008-10.883,0-21.768v-.6H3.4c-.823,0-1.647.008-2.47,0-.529-.007-.711-.342-.426-.793.675-1.068,1.353-2.132,2.05-3.186a.481.481,0,0,0,0-.638Q1.537,8.86.569,7.357A.764.764,0,0,1,.45,6.749a.74.74,0,0,1,.563-.244c.879-.025,1.76-.011,2.641-.011h.463V5.988c0-1.179-.005-2.358,0-3.536A1.9,1.9,0,0,1,6.179.377q12.31,0,24.62,0A1.894,1.894,0,0,1,32.85,2.42c.01,1.193,0,2.385,0,3.578,0,.151.012.3.021.5,1.011,0,1.989-.013,2.964.01.233.005.6.074.66.217a.932.932,0,0,1-.153.716q-.9,1.42-1.866,2.8a.608.608,0,0,0-.02.819c.668.986,1.305,1.994,1.929,3.01a.8.8,0,0,1,.121.647c-.084.148-.4.226-.615.232-.99.023-1.982.01-3.041.01m-.906.014h-.5q-2.343,0-4.686,0c-.739,0-.8-.059-.8-.808,0-.834,0-1.667,0-2.508H11.006c0,.9,0,1.761,0,2.625,0,.6-.093.688-.7.689q-2.407,0-4.813,0H5.02V37.392c0,.93.321,1.25,1.255,1.25q12.2,0,24.406,0c.953,0,1.265-.317,1.265-1.282V14.964ZM8.661,10.672H28.305V4.094H8.661Zm23.285-4.2c0-1.37,0-2.7,0-4.036,0-.786-.355-1.14-1.149-1.14q-12.312,0-24.624,0c-.795,0-1.148.354-1.15,1.14q0,1.832,0,3.664c0,.121.019.243.027.358H7.7c0-.924.017-1.817-.009-2.707-.011-.374.132-.564.483-.612a2.8,2.8,0,0,1,.383-.01H28.409c.113,0,.227-.005.341,0,.413.039.525.232.513.656-.024.888-.008,1.776-.008,2.682Zm-21.89,5.149H8.447c-.647,0-.75-.1-.752-.768,0-.78,0-1.562,0-2.342V7.423H1.7c.1.153.167.273.243.387.536.8,1.064,1.61,1.613,2.4a.667.667,0,0,1,.008.852c-.475.706-.923,1.429-1.381,2.146-.165.258-.329.516-.509.8h8.383Zm16.859,2.415h8.378c-.1-.164-.164-.285-.238-.4-.536-.837-1.058-1.682-1.614-2.5a.728.728,0,0,1,0-.96c.355-.478.667-.987,1-1.482l.841-1.258H29.273v.5c0,1.008,0,2.016,0,3.024,0,.55-.134.67-.678.672-.559,0-1.12,0-1.677,0Z" transform="translate(0.033 0.033)" fill="#0a0a0a"/>
    <path id="Caminho_594" data-name="Caminho 594" d="M32.852,14.95v.656q0,10.841,0,21.682a3.564,3.564,0,0,1-.09.927,1.862,1.862,0,0,1-1.906,1.339c-1.519.008-3.039,0-4.557,0q-10.033,0-20.063,0a1.9,1.9,0,0,1-2.01-1.313,3.329,3.329,0,0,1-.1-.925q-.008-10.883,0-21.768v-.6H3.4c-.823,0-1.647.008-2.47,0-.529-.007-.711-.342-.426-.793.675-1.068,1.353-2.132,2.05-3.186a.481.481,0,0,0,0-.638Q1.537,8.86.569,7.357A.764.764,0,0,1,.45,6.749a.74.74,0,0,1,.563-.244c.879-.025,1.76-.011,2.641-.011h.463V5.988c0-1.179-.005-2.358,0-3.536A1.9,1.9,0,0,1,6.179.377q12.31,0,24.62,0A1.894,1.894,0,0,1,32.85,2.42c.01,1.193,0,2.385,0,3.578,0,.151.012.3.021.5,1.011,0,1.989-.013,2.964.01.233.005.6.074.66.217a.932.932,0,0,1-.153.716q-.9,1.42-1.866,2.8a.608.608,0,0,0-.02.819c.668.986,1.305,1.994,1.929,3.01a.8.8,0,0,1,.121.647c-.084.148-.4.226-.615.232C34.9,14.963,33.911,14.95,32.852,14.95Zm-.906.014h-.5q-2.343,0-4.686,0c-.739,0-.8-.059-.8-.808,0-.834,0-1.667,0-2.508H11.006c0,.9,0,1.761,0,2.625,0,.6-.093.688-.7.689q-2.407,0-4.813,0H5.02V37.392c0,.93.321,1.25,1.255,1.25q12.2,0,24.406,0c.953,0,1.265-.317,1.265-1.282V14.964ZM8.661,10.672H28.305V4.094H8.661Zm23.285-4.2c0-1.37,0-2.7,0-4.036,0-.786-.355-1.14-1.149-1.14q-12.312,0-24.624,0c-.795,0-1.148.354-1.15,1.14q0,1.832,0,3.664c0,.121.019.243.027.358H7.7c0-.924.017-1.817-.009-2.707-.011-.374.132-.564.483-.612a2.8,2.8,0,0,1,.383-.01H28.409c.113,0,.227-.005.341,0,.413.039.525.232.513.656-.024.888-.008,1.776-.008,2.682Zm-21.89,5.149H8.447c-.647,0-.75-.1-.752-.768,0-.78,0-1.562,0-2.342V7.423H1.7c.1.153.167.273.243.387.536.8,1.064,1.61,1.613,2.4a.667.667,0,0,1,.008.852c-.475.706-.923,1.429-1.381,2.146-.165.258-.329.516-.509.8h8.383Zm16.859,2.415h8.378c-.1-.164-.164-.285-.238-.4-.536-.837-1.058-1.682-1.614-2.5a.728.728,0,0,1,0-.96c.355-.478.667-.987,1-1.482l.841-1.258H29.273v.5c0,1.008,0,2.016,0,3.024,0,.55-.134.67-.678.672-.559,0-1.12,0-1.677,0Z" transform="translate(0.033 0.033)" fill="#0a0a0a"/>
    <path id="Caminho_595" data-name="Caminho 595" d="M17.9,17.046h10c.141,0,.315-.041.417.025.15.1.337.268.343.414s-.174.325-.318.428c-.1.07-.273.041-.414.041q-10.047,0-20.095,0a.814.814,0,0,1-.415-.045c-.137-.09-.316-.268-.306-.394a.726.726,0,0,1,.319-.435c.1-.07.274-.033.416-.033H17.9" transform="translate(0.629 1.506)" fill="#0a0a0a"/>
    <path id="Caminho_596" data-name="Caminho 596" d="M17.9,17.046h10c.141,0,.315-.041.417.025.15.1.337.268.343.414s-.174.325-.318.428c-.1.07-.273.041-.414.041q-10.047,0-20.095,0a.814.814,0,0,1-.415-.045c-.137-.09-.316-.268-.306-.394a.726.726,0,0,1,.319-.435c.1-.07.274-.033.416-.033Z" transform="translate(0.629 1.506)" fill="#0a0a0a"/>
    <path id="Caminho_597" data-name="Caminho 597" d="M17.885,21.757H27.932c.14,0,.319-.039.415.029a.723.723,0,0,1,.318.438c.01.126-.169.309-.308.391a.968.968,0,0,1-.458.045H7.89c-.571,0-.833-.146-.792-.471.061-.479.439-.434.784-.434h10" transform="translate(0.627 1.923)" fill="#0a0a0a"/>
    <path id="Caminho_598" data-name="Caminho 598" d="M17.885,21.757H27.932c.14,0,.319-.039.415.029a.723.723,0,0,1,.318.438c.01.126-.169.309-.308.391a.968.968,0,0,1-.458.045H7.89c-.571,0-.833-.146-.792-.471.061-.479.439-.434.784-.434Z" transform="translate(0.627 1.923)" fill="#0a0a0a"/>
    <path id="Caminho_599" data-name="Caminho 599" d="M17.9,27.373H8.061c-.1,0-.2,0-.3,0-.451-.007-.7-.172-.666-.472.041-.386.325-.444.653-.443,1.192,0,2.385,0,3.577,0H27.888c.568,0,.834.146.795.469-.059.473-.434.444-.781.444h-10" transform="translate(0.627 2.34)" fill="#0a0a0a"/>
    <path id="Caminho_600" data-name="Caminho 600" d="M17.9,27.373H8.061c-.1,0-.2,0-.3,0-.451-.007-.7-.172-.666-.472.041-.386.325-.444.653-.443,1.192,0,2.385,0,3.577,0H27.888c.568,0,.834.146.795.469-.059.473-.434.444-.781.444Z" transform="translate(0.627 2.34)" fill="#0a0a0a"/>
    <path id="Caminho_601" data-name="Caminho 601" d="M17.9,31.171h10c.141,0,.315-.041.417.025.15.1.337.268.343.414s-.174.325-.318.428c-.1.07-.273.041-.414.041q-10.047,0-20.095,0a.814.814,0,0,1-.415-.045c-.137-.09-.316-.268-.306-.394a.726.726,0,0,1,.319-.435c.1-.07.274-.033.416-.033H17.9" transform="translate(0.629 2.756)" fill="#0a0a0a"/>
    <path id="Caminho_602" data-name="Caminho 602" d="M17.9,31.171h10c.141,0,.315-.041.417.025.15.1.337.268.343.414s-.174.325-.318.428c-.1.07-.273.041-.414.041q-10.047,0-20.095,0a.814.814,0,0,1-.415-.045c-.137-.09-.316-.268-.306-.394a.726.726,0,0,1,.319-.435c.1-.07.274-.033.416-.033Z" transform="translate(0.629 2.756)" fill="#0a0a0a"/>
    <path id="Caminho_603" data-name="Caminho 603" d="M12.918,8.946a4.78,4.78,0,0,1-.542-.221.848.848,0,0,0-.814-.009c-.936.408-1.047.332-.972-.67a.923.923,0,0,0-.285-.839,2.028,2.028,0,0,1-.3-.358c-.188-.27-.113-.576.2-.615a1.7,1.7,0,0,0,1.447-1.057c.126-.271.431-.249.628-.015a.21.21,0,0,1,.04.059,1.545,1.545,0,0,0,1.356,1c.381.058.452.358.216.676a.327.327,0,0,1-.046.056,1.389,1.389,0,0,0-.475,1.478.4.4,0,0,1-.453.515M11.9,6.209c-.106.4-.488.528-.956.638A1.012,1.012,0,0,1,11.354,8a1.008,1.008,0,0,1,1.236.013,1.007,1.007,0,0,1,.268-1.1L11.9,6.209" transform="translate(0.876 0.44)" fill="#0a0a0a"/>
    <path id="Caminho_604" data-name="Caminho 604" d="M15.761,8.463c0-.035.007-.072.014-.107A1.259,1.259,0,0,0,15.346,7a.683.683,0,0,1-.138-.167.375.375,0,0,1,.193-.608.594.594,0,0,1,.174-.048,1.356,1.356,0,0,0,1.2-.865c.233-.47.574-.463.817.014a1.438,1.438,0,0,0,1.173.857c.539.077.647.418.25.8a1.458,1.458,0,0,0-.434,1.427c.075.442-.222.679-.6.466a1.558,1.558,0,0,0-1.621.009c-.356.186-.616-.026-.6-.424m2.048-.446a1.074,1.074,0,0,1,.4-1.214,1.032,1.032,0,0,1-1.027-.75,1.067,1.067,0,0,1-1.026.767,1.056,1.056,0,0,1,.413,1.19,1.01,1.01,0,0,1,1.245.007" transform="translate(1.337 0.439)" fill="#0a0a0a"/>
    <path id="Caminho_605" data-name="Caminho 605" d="M21.211,8.479a.711.711,0,0,1,.013-.108,1.335,1.335,0,0,0-.409-1.362c-.426-.42-.32-.744.268-.833a1.389,1.389,0,0,0,1.12-.816c.27-.52.594-.526.853-.011a1.415,1.415,0,0,0,1.149.833c.559.086.666.419.253.819a1.445,1.445,0,0,0-.422,1.4c.074.469-.21.7-.621.473a1.526,1.526,0,0,0-1.587.011c-.355.193-.626-.013-.616-.4m.364-1.647c.5.291.506.7.465,1.176a1.03,1.03,0,0,1,1.226-.013A1.055,1.055,0,0,1,23.654,6.8,1.1,1.1,0,0,1,22.6,6.03c-.138.577-.5.718-1.026.8" transform="translate(1.818 0.439)" fill="#0a0a0a"/>
  </g>
</svg>
