<svg id="Grupo_337" data-name="Grupo 337" xmlns="http://www.w3.org/2000/svg" xmlns:xlink="http://www.w3.org/1999/xlink" width="39.969" height="40" viewBox="0 0 39.969 40">
  <defs>
    <clipPath id="clip-path">
      <rect id="Retângulo_160" data-name="Retângulo 160" width="39.969" height="40" fill="none"/>
    </clipPath>
  </defs>
  <g id="Grupo_336" data-name="Grupo 336" clip-path="url(#clip-path)">
    <path id="Caminho_630" data-name="Caminho 630" d="M63.588.01c2.619.045,4.82.549,6.622,2.2a8.151,8.151,0,0,1,2.566,5.444,18.518,18.518,0,0,1-1.8,9.18c-.406.949-.886,1.869-1.368,2.783a.727.727,0,0,0,0,.795,25.366,25.366,0,0,1,3.015,8.245,11.289,11.289,0,0,1-.656,6.709,7.774,7.774,0,0,1-6.4,4.53,16.724,16.724,0,0,1-8.26-1.258,38.159,38.159,0,0,1-11.976-7.6c-1.4-1.267-2.684-2.669-3.989-4.038a1.538,1.538,0,0,1,.006-2.323,1.556,1.556,0,0,1,2.313.264,43.8,43.8,0,0,0,8.855,7.741.49.49,0,0,0,.641.026C59.623,28.356,64.825,22.9,68.037,15.7A17.737,17.737,0,0,0,69.7,9.609a7.662,7.662,0,0,0-.478-3.477A4.783,4.783,0,0,0,65.038,3.2a12.565,12.565,0,0,0-3.858.233,2.5,2.5,0,0,1-1.224-.086,1.445,1.445,0,0,1-.875-1.532A1.546,1.546,0,0,1,60.246.478,11.9,11.9,0,0,1,61.625.206c.737-.094,1.48-.149,1.963-.2m3.89,23.03a47.3,47.3,0,0,1-11.6,11.617c.815.351,1.515.681,2.236.957a15.031,15.031,0,0,0,6.856,1.2,4.856,4.856,0,0,0,4.611-4.118,9.886,9.886,0,0,0-.021-3.567,21.547,21.547,0,0,0-2.083-6.086" transform="translate(-32.872 -0.008)"/>
    <path id="Caminho_631" data-name="Caminho 631" d="M9.7,39.974c-3.385.087-5.9-.742-7.794-2.973A9.033,9.033,0,0,1,.026,30.35a23.207,23.207,0,0,1,3.134-9.8,1.023,1.023,0,0,0-.013-1.139A25.008,25.008,0,0,1,.221,11.336,12.085,12.085,0,0,1,.458,5.76,7.653,7.653,0,0,1,6.908.185,16.261,16.261,0,0,1,15.64,1.406,39.267,39.267,0,0,1,28.527,9.884c1.021.967,1.97,2.012,2.924,3.046a1.57,1.57,0,0,1,.042,2.4,1.589,1.589,0,0,1-2.379-.352,43.831,43.831,0,0,0-8.705-7.62.611.611,0,0,0-.806-.006A40.75,40.75,0,0,0,5.755,22.342a21.6,21.6,0,0,0-2.525,7.14A9.806,9.806,0,0,0,3.3,32.862,4.846,4.846,0,0,0,7.824,36.8a12.327,12.327,0,0,0,3.9-.27,1.579,1.579,0,0,1,1.675.49,1.471,1.471,0,0,1,.269,1.545,1.423,1.423,0,0,1-1.126.964c-1.114.19-2.233.35-2.843.444m-4.341-23A47.342,47.342,0,0,1,16.96,5.351c-.622-.279-1.143-.532-1.68-.75a15.681,15.681,0,0,0-7.4-1.415,4.927,4.927,0,0,0-4.7,4.637c-.318,3.269.8,6.193,2.178,9.15" transform="translate(0 0)"/>
    <path id="Caminho_632" data-name="Caminho 632" d="M85.646,80.219a5.438,5.438,0,1,1-5.437-5.43,5.445,5.445,0,0,1,5.437,5.43m-3.112-.012a2.326,2.326,0,1,0-2.328,2.347,2.332,2.332,0,0,0,2.328-2.347" transform="translate(-60.219 -60.234)"/>
  </g>
</svg>
