<svg id="Grupo_328" data-name="Grupo 328" xmlns="http://www.w3.org/2000/svg" xmlns:xlink="http://www.w3.org/1999/xlink" width="40.002" height="40" viewBox="0 0 40.002 40">
  <defs>
    <clipPath id="clip-path">
      <rect id="Retângulo_156" data-name="Retângulo 156" width="40.002" height="40" fill="#0a0a0a"/>
    </clipPath>
  </defs>
  <g id="Grupo_327" data-name="Grupo 327" transform="translate(0 0)" clip-path="url(#clip-path)">
    <path id="Caminho_612" data-name="Caminho 612" d="M28.1,23.762a9.609,9.609,0,0,1-4.349,4.347c.383.459.706.9,1.088,1.293,1.381,1.409,2.783,2.8,4.177,4.194a1.847,1.847,0,1,1-2.532,2.689q-1.718-1.675-3.387-3.4a2.144,2.144,0,0,0-1.71-.721c-1.173.035-2.347.019-3.52.006a1.773,1.773,0,0,0-1.346.562q-1.766,1.789-3.553,3.559a1.809,1.809,0,0,1-2.072.368,1.858,1.858,0,0,1-1.069-1.78,1.766,1.766,0,0,1,.513-1.179c.543-.551,1.087-1.1,1.64-1.644a.577.577,0,0,1,.857-.064.6.6,0,0,1-.042.89c-.5.507-1,1-1.5,1.508-.373.377-.4.78-.09,1.082s.688.256,1.053-.109c1.142-1.138,2.287-2.272,3.416-3.423a2.936,2.936,0,0,1,2.247-.933q1.816.028,3.636,0a2.934,2.934,0,0,1,2.242.942q1.677,1.715,3.4,3.389a1.038,1.038,0,0,0,.7.291c.187-.012.413-.243.523-.434a.622.622,0,0,0-.2-.761l-2.816-2.82c-.246-.245-.5-.483-.736-.739-.675-.738-1.341-1.484-2.045-2.267-.55.1-1.213.25-1.884.343a8.3,8.3,0,0,1-3.629-.325c-.295-.091-.394,0-.573.227-.563.716-1.173,1.4-1.79,2.07a.532.532,0,0,1-.8,0,.567.567,0,0,1,0-.829c.252-.275.539-.52.783-.8.329-.374.631-.768.894-1.092A26.334,26.334,0,0,1,13.209,26.3a26.519,26.519,0,0,1-1.938-2.412c-.313.257-.73.552-1.088.906-1.426,1.4-2.836,2.817-4.249,4.231a1.828,1.828,0,0,1-1.72.576A1.765,1.765,0,0,1,2.79,28.33a1.748,1.748,0,0,1,.462-1.85C4.4,25.326,5.541,24.173,6.706,23.04a2.006,2.006,0,0,0,.658-1.578q-.041-1.74,0-3.481a1.969,1.969,0,0,0-.649-1.544c-1.173-1.143-2.327-2.3-3.477-3.47A1.8,1.8,0,0,1,2.876,10.9,1.859,1.859,0,0,1,4.661,9.835a1.945,1.945,0,0,1,1.291.623c1.4,1.406,2.8,2.814,4.22,4.2.362.355.779.655,1.2,1a9.585,9.585,0,0,1,4.326-4.3c-.364-.443-.675-.883-1.046-1.262-1.4-1.426-2.823-2.83-4.23-4.251a1.842,1.842,0,0,1,.05-2.769,1.813,1.813,0,0,1,2.377-.011c.441.394.852.824,1.262,1.252a.553.553,0,0,1,0,.829.566.566,0,0,1-.831-.028c-.355-.337-.691-.693-1.041-1.037a.694.694,0,1,0-.961.977c1.091,1.1,2.187,2.189,3.278,3.286a10.078,10.078,0,0,1,2.16,2.589,9.535,9.535,0,0,1,5.951-.022c1.479-2.122,3.489-3.709,5.216-5.561.1-.1.2-.2.3-.3A.7.7,0,0,0,28.256,4c-.3-.294-.689-.262-1.052.1-1.141,1.138-2.288,2.272-3.415,3.424a2.938,2.938,0,0,1-2.245.935c-1.186-.018-2.375-.044-3.56.007a3.4,3.4,0,0,1-2.827-1.478.52.52,0,0,1,.059-.765.526.526,0,0,1,.767-.018c.224.193.423.415.635.622a1.541,1.541,0,0,0,1.113.462q1.991,0,3.986,0a1.668,1.668,0,0,0,1.224-.567c1.183-1.19,2.364-2.379,3.557-3.557a1.738,1.738,0,0,1,1.856-.437,1.761,1.761,0,0,1,1.239,1.407A1.844,1.844,0,0,1,29,5.888c-1.388,1.383-2.779,2.765-4.151,4.164-.384.391-.711.836-1.1,1.3A9.778,9.778,0,0,1,28.1,15.7c.419-.338.818-.635,1.185-.966s.711-.712,1.075-1.059a.576.576,0,0,1,.857-.039.565.565,0,0,1-.042.858,11.644,11.644,0,0,1-2.474,2.148.339.339,0,0,0-.113.3,9.315,9.315,0,0,1-.039,5.729c2.2,1.56,3.866,3.668,5.824,5.468a1.112,1.112,0,0,0,.738.288c.182-.011.4-.259.5-.454.143-.284-.025-.54-.24-.755-1.115-1.109-2.212-2.237-3.345-3.328A3.124,3.124,0,0,1,31,21.413c.034-1.185.019-2.372,0-3.559a2.839,2.839,0,0,1,.9-2.143c1.1-1.086,2.191-2.184,3.288-3.278.072-.073.147-.143.217-.219a.686.686,0,1,0-.957-.976c-.373.358-.732.727-1.1,1.092-.073.073-.142.15-.222.216a.59.59,0,0,1-.833-.014.558.558,0,0,1,.02-.8c.484-.5.963-1.008,1.486-1.468a1.84,1.84,0,0,1,2.5,2.695Q34.6,14.7,32.852,16.4a2.072,2.072,0,0,0-.687,1.646c.034,1.133.03,2.269,0,3.4a2,2,0,0,0,.65,1.582c1.173,1.142,2.33,2.3,3.478,3.47a1.8,1.8,0,0,1,.359,2.072,1.86,1.86,0,0,1-1.786,1.06,1.944,1.944,0,0,1-1.291-.626c-1.4-1.406-2.8-2.814-4.221-4.2-.379-.372-.818-.68-1.258-1.041M11.628,19.337c.1.037.2.075.3.106,1.274.392,1.741.058,1.855-1.263a8.55,8.55,0,0,1,.311-1.818,1.77,1.77,0,0,1,1.93-1.224,9.649,9.649,0,0,1,1.285.253.554.554,0,0,1,.445.7.571.571,0,0,1-.72.415c-.316-.056-.627-.14-.945-.19a.773.773,0,0,0-.983.632,3.671,3.671,0,0,0-.1.57c-.056.473-.08.951-.16,1.421a1.994,1.994,0,0,1-2.214,1.8c-.315-.01-.624-.075-.938-.116a7.314,7.314,0,0,0,2.04,4.507c.057-.13.109-.262.168-.39a2.757,2.757,0,0,1,2.321-1.749,2.8,2.8,0,0,1,2.816,1.315c.12.184.244.364.365.547a1.153,1.153,0,0,0,1.314.5c.164-.034.325-.085.489-.118a1.735,1.735,0,0,1,2.056,1.038c.091.194.157.4.245.629.141-.075.266-.134.383-.207a8.08,8.08,0,0,0,3.69-4.912c.176-.646.176-.654-.419-.984-2.422-1.341-2.721-4.657-1.093-6.017.014-.012.011-.046.014-.068-1.027-1.432-3.475-2.926-4.626-2.871a6.775,6.775,0,0,1,.353,1.268,3.1,3.1,0,0,1-1.643,2.863.574.574,0,0,1-.851-.128.6.6,0,0,1,.206-.837,5.967,5.967,0,0,0,.719-.642,1.427,1.427,0,0,0,.25-1.713,1.732,1.732,0,0,0-1.714-.979,9.659,9.659,0,0,0-.988.172,8.124,8.124,0,0,0-6.162,7.488M4.547,28.568a4.928,4.928,0,0,0,.635-.445c1.383-1.368,2.747-2.757,4.142-4.113a12.463,12.463,0,0,1,1.389-1.1c.161-.118.221-.2.158-.4a9.084,9.084,0,0,1,0-5.549c.063-.2,0-.285-.157-.4A14.187,14.187,0,0,1,9.3,15.431c-1.032-.99-2.03-2.015-3.045-3.025-.409-.409-.811-.829-1.235-1.224a.657.657,0,0,0-.941.011.667.667,0,0,0-.03.941,3.246,3.246,0,0,0,.243.25c1.113,1.11,2.221,2.225,3.34,3.33a2.847,2.847,0,0,1,.895,2.143q-.021,1.875,0,3.75a2.844,2.844,0,0,1-.894,2.144c-1.119,1.1-2.228,2.22-3.34,3.331-.1.1-.252.191-.28.311a1.255,1.255,0,0,0-.033.716c.079.185.347.291.568.459m15.172-.649c.684-.109,1.374-.19,2.052-.333s.772-.446.325-.987a.8.8,0,0,0-.526-.222,2.615,2.615,0,0,0-.643.118,2.255,2.255,0,0,1-2.442-.93,5.739,5.739,0,0,0-.506-.727,2.365,2.365,0,0,0-.82-.6,1.8,1.8,0,0,0-2.383,1.53.478.478,0,0,0,.227.576,8.763,8.763,0,0,0,4.716,1.577m8.1-8.116a7.422,7.422,0,0,0-1.04-4.013c-1.108.891-.519,3.236,1.04,4.013" transform="translate(0.271 0.264)" fill="#0a0a0a"/>
    <path id="Caminho_613" data-name="Caminho 613" d="M28.1,23.762a9.609,9.609,0,0,1-4.349,4.347c.383.459.706.9,1.088,1.293,1.381,1.409,2.783,2.8,4.177,4.194a1.847,1.847,0,1,1-2.532,2.689q-1.718-1.675-3.387-3.4a2.144,2.144,0,0,0-1.71-.721c-1.173.035-2.347.019-3.52.006a1.773,1.773,0,0,0-1.346.562q-1.766,1.789-3.553,3.559a1.809,1.809,0,0,1-2.072.368,1.858,1.858,0,0,1-1.069-1.78,1.766,1.766,0,0,1,.513-1.179c.543-.551,1.087-1.1,1.64-1.644a.577.577,0,0,1,.857-.064.6.6,0,0,1-.042.89c-.5.507-1,1-1.5,1.508-.373.377-.4.78-.09,1.082s.688.256,1.053-.109c1.142-1.138,2.287-2.272,3.416-3.423a2.936,2.936,0,0,1,2.247-.933q1.816.028,3.636,0a2.934,2.934,0,0,1,2.242.942q1.677,1.715,3.4,3.389a1.038,1.038,0,0,0,.7.291c.187-.012.413-.243.523-.434a.622.622,0,0,0-.2-.761l-2.816-2.82c-.246-.245-.5-.483-.736-.739-.675-.738-1.341-1.484-2.045-2.267-.55.1-1.213.25-1.884.343a8.3,8.3,0,0,1-3.629-.325c-.295-.091-.394,0-.573.227-.563.716-1.173,1.4-1.79,2.07a.532.532,0,0,1-.8,0,.567.567,0,0,1,0-.829c.252-.275.539-.52.783-.8.329-.374.631-.768.894-1.092A26.334,26.334,0,0,1,13.209,26.3a26.519,26.519,0,0,1-1.938-2.412c-.313.257-.73.552-1.088.906-1.426,1.4-2.836,2.817-4.249,4.231a1.828,1.828,0,0,1-1.72.576A1.765,1.765,0,0,1,2.79,28.33a1.748,1.748,0,0,1,.462-1.85C4.4,25.326,5.541,24.173,6.706,23.04a2.006,2.006,0,0,0,.658-1.578q-.041-1.74,0-3.481a1.969,1.969,0,0,0-.649-1.544c-1.173-1.143-2.327-2.3-3.477-3.47A1.8,1.8,0,0,1,2.876,10.9,1.859,1.859,0,0,1,4.661,9.835a1.945,1.945,0,0,1,1.291.623c1.4,1.406,2.8,2.814,4.22,4.2.362.355.779.655,1.2,1a9.585,9.585,0,0,1,4.326-4.3c-.364-.443-.675-.883-1.046-1.262-1.4-1.426-2.823-2.83-4.23-4.251a1.842,1.842,0,0,1,.05-2.769,1.813,1.813,0,0,1,2.377-.011c.441.394.852.824,1.262,1.252a.553.553,0,0,1,0,.829.566.566,0,0,1-.831-.028c-.355-.337-.691-.693-1.041-1.037a.694.694,0,1,0-.961.977c1.091,1.1,2.187,2.189,3.278,3.286a10.078,10.078,0,0,1,2.16,2.589,9.535,9.535,0,0,1,5.951-.022c1.479-2.122,3.489-3.709,5.216-5.561.1-.1.2-.2.3-.3A.7.7,0,0,0,28.256,4c-.3-.294-.689-.262-1.052.1-1.141,1.138-2.288,2.272-3.415,3.424a2.938,2.938,0,0,1-2.245.935c-1.186-.018-2.375-.044-3.56.007a3.4,3.4,0,0,1-2.827-1.478.52.52,0,0,1,.059-.765.526.526,0,0,1,.767-.018c.224.193.423.415.635.622a1.541,1.541,0,0,0,1.113.462q1.991,0,3.986,0a1.668,1.668,0,0,0,1.224-.567c1.183-1.19,2.364-2.379,3.557-3.557a1.738,1.738,0,0,1,1.856-.437,1.761,1.761,0,0,1,1.239,1.407A1.844,1.844,0,0,1,29,5.888c-1.388,1.383-2.779,2.765-4.151,4.164-.384.391-.711.836-1.1,1.3A9.778,9.778,0,0,1,28.1,15.7c.419-.338.818-.635,1.185-.966s.711-.712,1.075-1.059a.576.576,0,0,1,.857-.039.565.565,0,0,1-.042.858,11.644,11.644,0,0,1-2.474,2.148.339.339,0,0,0-.113.3,9.315,9.315,0,0,1-.039,5.729c2.2,1.56,3.866,3.668,5.824,5.468a1.112,1.112,0,0,0,.738.288c.182-.011.4-.259.5-.454.143-.284-.025-.54-.24-.755-1.115-1.109-2.212-2.237-3.345-3.328A3.124,3.124,0,0,1,31,21.413c.034-1.185.019-2.372,0-3.559a2.839,2.839,0,0,1,.9-2.143c1.1-1.086,2.191-2.184,3.288-3.278.072-.073.147-.143.217-.219a.686.686,0,1,0-.957-.976c-.373.358-.732.727-1.1,1.092-.073.073-.142.15-.222.216a.59.59,0,0,1-.833-.014.558.558,0,0,1,.02-.8c.484-.5.963-1.008,1.486-1.468a1.84,1.84,0,0,1,2.5,2.695Q34.6,14.7,32.852,16.4a2.072,2.072,0,0,0-.687,1.646c.034,1.133.03,2.269,0,3.4a2,2,0,0,0,.65,1.582c1.173,1.142,2.33,2.3,3.478,3.47a1.8,1.8,0,0,1,.359,2.072,1.86,1.86,0,0,1-1.786,1.06,1.944,1.944,0,0,1-1.291-.626c-1.4-1.406-2.8-2.814-4.221-4.2C28.978,24.431,28.539,24.122,28.1,23.762ZM11.628,19.337c.1.037.2.075.3.106,1.274.392,1.741.058,1.855-1.263a8.55,8.55,0,0,1,.311-1.818,1.77,1.77,0,0,1,1.93-1.224,9.649,9.649,0,0,1,1.285.253.554.554,0,0,1,.445.7.571.571,0,0,1-.72.415c-.316-.056-.627-.14-.945-.19a.773.773,0,0,0-.983.632,3.671,3.671,0,0,0-.1.57c-.056.473-.08.951-.16,1.421a1.994,1.994,0,0,1-2.214,1.8c-.315-.01-.624-.075-.938-.116a7.314,7.314,0,0,0,2.04,4.507c.057-.13.109-.262.168-.39a2.757,2.757,0,0,1,2.321-1.749,2.8,2.8,0,0,1,2.816,1.315c.12.184.244.364.365.547a1.153,1.153,0,0,0,1.314.5c.164-.034.325-.085.489-.118a1.735,1.735,0,0,1,2.056,1.038c.091.194.157.4.245.629.141-.075.266-.134.383-.207a8.08,8.08,0,0,0,3.69-4.912c.176-.646.176-.654-.419-.984-2.422-1.341-2.721-4.657-1.093-6.017.014-.012.011-.046.014-.068-1.027-1.432-3.475-2.926-4.626-2.871a6.775,6.775,0,0,1,.353,1.268,3.1,3.1,0,0,1-1.643,2.863.574.574,0,0,1-.851-.128.6.6,0,0,1,.206-.837,5.967,5.967,0,0,0,.719-.642,1.427,1.427,0,0,0,.25-1.713,1.732,1.732,0,0,0-1.714-.979,9.659,9.659,0,0,0-.988.172A8.124,8.124,0,0,0,11.628,19.337ZM4.547,28.568a4.928,4.928,0,0,0,.635-.445c1.383-1.368,2.747-2.757,4.142-4.113a12.463,12.463,0,0,1,1.389-1.1c.161-.118.221-.2.158-.4a9.084,9.084,0,0,1,0-5.549c.063-.2,0-.285-.157-.4A14.187,14.187,0,0,1,9.3,15.431c-1.032-.99-2.03-2.015-3.045-3.025-.409-.409-.811-.829-1.235-1.224a.657.657,0,0,0-.941.011.667.667,0,0,0-.03.941,3.246,3.246,0,0,0,.243.25c1.113,1.11,2.221,2.225,3.34,3.33a2.847,2.847,0,0,1,.895,2.143q-.021,1.875,0,3.75a2.844,2.844,0,0,1-.894,2.144c-1.119,1.1-2.228,2.22-3.34,3.331-.1.1-.252.191-.28.311a1.255,1.255,0,0,0-.033.716C4.058,28.294,4.326,28.4,4.547,28.568Zm15.172-.649c.684-.109,1.374-.19,2.052-.333s.772-.446.325-.987a.8.8,0,0,0-.526-.222,2.615,2.615,0,0,0-.643.118,2.255,2.255,0,0,1-2.442-.93,5.739,5.739,0,0,0-.506-.727,2.365,2.365,0,0,0-.82-.6,1.8,1.8,0,0,0-2.383,1.53.478.478,0,0,0,.227.576A8.763,8.763,0,0,0,19.719,27.919Zm8.1-8.116a7.422,7.422,0,0,0-1.04-4.013C25.673,16.681,26.261,19.026,27.821,19.8Z" transform="translate(0.271 0.264)" fill="#0a0a0a"/>
    <path id="Caminho_614" data-name="Caminho 614" d="M36.741,18.48c0,.67,0,1.341,0,2.012a.975.975,0,0,1-1.061,1.059q-2.03.008-4.061,0A.972.972,0,0,1,30.55,20.5q-.01-2.05,0-4.1a.964.964,0,0,1,1.04-1.038q2.05-.01,4.1,0a.972.972,0,0,1,1.049,1.069c.007.683,0,1.367,0,2.049m-5-1.957v3.834h3.818v-3.82c-.081-.006-.143-.013-.2-.013H31.739" transform="translate(3.067 1.542)" fill="#0a0a0a"/>
    <path id="Caminho_615" data-name="Caminho 615" d="M36.741,18.48c0,.67,0,1.341,0,2.012a.975.975,0,0,1-1.061,1.059q-2.03.008-4.061,0A.972.972,0,0,1,30.55,20.5q-.01-2.05,0-4.1a.964.964,0,0,1,1.04-1.038q2.05-.01,4.1,0a.972.972,0,0,1,1.049,1.069C36.746,17.114,36.741,17.8,36.741,18.48Zm-5-1.957v3.834h3.818v-3.82c-.081-.006-.143-.013-.2-.013Z" transform="translate(3.067 1.542)" fill="#0a0a0a"/>
    <path id="Caminho_616" data-name="Caminho 616" d="M18.47,36.737c-.438,0-.876-.009-1.314,0a.689.689,0,0,1-.67-.366c-.456-.791-.933-1.572-1.354-2.381a.888.888,0,0,1,0-.711c.416-.8.889-1.566,1.335-2.348a.721.721,0,0,1,.7-.391q1.314.015,2.628,0a.74.74,0,0,1,.719.417c.43.761.866,1.52,1.314,2.271a.74.74,0,0,1-.006.831q-.67,1.127-1.314,2.272a.732.732,0,0,1-.724.407c-.438-.014-.876,0-1.314,0m.172-5.029c-1.272,0-1.216.039-1.841.941a1.6,1.6,0,0,0-.018,1.987,1.684,1.684,0,0,0,1.7.974,1.685,1.685,0,0,0,1.7-.969,1.669,1.669,0,0,0,0-1.994c-.428-.692-.808-1.2-1.541-.939" transform="translate(1.512 3.067)" fill="#0a0a0a"/>
    <path id="Caminho_617" data-name="Caminho 617" d="M18.47,36.737c-.438,0-.876-.009-1.314,0a.689.689,0,0,1-.67-.366c-.456-.791-.933-1.572-1.354-2.381a.888.888,0,0,1,0-.711c.416-.8.889-1.566,1.335-2.348a.721.721,0,0,1,.7-.391q1.314.015,2.628,0a.74.74,0,0,1,.719.417c.43.761.866,1.52,1.314,2.271a.74.74,0,0,1-.006.831q-.67,1.127-1.314,2.272a.732.732,0,0,1-.724.407C19.346,36.726,18.908,36.737,18.47,36.737Zm.172-5.029c-1.272,0-1.216.039-1.841.941a1.6,1.6,0,0,0-.018,1.987,1.684,1.684,0,0,0,1.7.974,1.685,1.685,0,0,0,1.7-.969,1.669,1.669,0,0,0,0-1.994C19.754,31.955,19.375,31.449,18.642,31.708Z" transform="translate(1.512 3.067)" fill="#0a0a0a"/>
    <path id="Caminho_618" data-name="Caminho 618" d="M18.475.175A3.1,3.1,0,1,1,15.36,3.258,3.1,3.1,0,0,1,18.475.175M18.46,1.338a1.932,1.932,0,1,0,1.927,1.955A1.938,1.938,0,0,0,18.46,1.338" transform="translate(1.542 0.018)" fill="#0a0a0a"/>
    <path id="Caminho_619" data-name="Caminho 619" d="M18.475.175A3.1,3.1,0,1,1,15.36,3.258,3.1,3.1,0,0,1,18.475.175ZM18.46,1.338a1.932,1.932,0,1,0,1.927,1.955A1.938,1.938,0,0,0,18.46,1.338Z" transform="translate(1.542 0.018)" fill="#0a0a0a"/>
    <path id="Caminho_620" data-name="Caminho 620" d="M6.363,18.471c0,.592,0,1.184,0,1.776a.969.969,0,0,1-1.453.944c-1.385-.617-2.763-1.252-4.143-1.882a.942.942,0,0,1,0-1.746c1.391-.634,2.781-1.274,4.178-1.9a.961.961,0,0,1,1.42.912c.01.631,0,1.261,0,1.892M5.184,16.832l-3.53,1.606,3.53,1.6Z" transform="translate(0.018 1.562)" fill="#0a0a0a"/>
    <path id="Caminho_621" data-name="Caminho 621" d="M6.363,18.471c0,.592,0,1.184,0,1.776a.969.969,0,0,1-1.453.944c-1.385-.617-2.763-1.252-4.143-1.882a.942.942,0,0,1,0-1.746c1.391-.634,2.781-1.274,4.178-1.9a.961.961,0,0,1,1.42.912C6.37,17.21,6.363,17.84,6.363,18.471ZM5.184,16.832l-3.53,1.606,3.53,1.6Z" transform="translate(0.018 1.562)" fill="#0a0a0a"/>
    <path id="Caminho_622" data-name="Caminho 622" d="M19.225,21.221c-1.639.033-2.415-1-1.958-2.282a1.394,1.394,0,0,1,1.048-.98,2.2,2.2,0,0,0,1.349-.89,1.324,1.324,0,0,1,1.8-.447,3.247,3.247,0,0,1,1.012.8A1.748,1.748,0,0,1,22.253,20a5.279,5.279,0,0,1-3.027,1.218m-.207-1.155a4.611,4.611,0,0,0,2.194-.721c.737-.48.724-1.087-.02-1.57-.278-.182-.5-.2-.711.116a2.828,2.828,0,0,1-1.647,1.135c-.419.114-.576.315-.523.664.061.4.366.365.706.377" transform="translate(1.721 1.65)" fill="#0a0a0a"/>
    <path id="Caminho_623" data-name="Caminho 623" d="M19.225,21.221c-1.639.033-2.415-1-1.958-2.282a1.394,1.394,0,0,1,1.048-.98,2.2,2.2,0,0,0,1.349-.89,1.324,1.324,0,0,1,1.8-.447,3.247,3.247,0,0,1,1.012.8A1.748,1.748,0,0,1,22.253,20,5.279,5.279,0,0,1,19.225,21.221Zm-.207-1.155a4.611,4.611,0,0,0,2.194-.721c.737-.48.724-1.087-.02-1.57-.278-.182-.5-.2-.711.116a2.828,2.828,0,0,1-1.647,1.135c-.419.114-.576.315-.523.664C18.373,20.083,18.679,20.053,19.019,20.065Z" transform="translate(1.721 1.65)" fill="#0a0a0a"/>
  </g>
</svg>
