<svg id="Grupo_330" data-name="Grupo 330" xmlns="http://www.w3.org/2000/svg" xmlns:xlink="http://www.w3.org/1999/xlink" width="34.852" height="40" viewBox="0 0 34.852 40">
  <defs>
    <clipPath id="clip-path">
      <rect id="Retângulo_157" data-name="Retângulo 157" width="34.852" height="40" fill="#0a0a0a"/>
    </clipPath>
  </defs>
  <g id="Grupo_329" data-name="Grupo 329" clip-path="url(#clip-path)">
    <path id="Caminho_624" data-name="Caminho 624" d="M.02,26.572c0-2.971-.051-5.943.01-8.913C.188,10.031,3.779,4.572,10.691,1.416a17.212,17.212,0,0,1,18.573,3.27A17.317,17.317,0,0,1,34.643,14.8a18.63,18.63,0,0,1,.2,2.8c.017,6.292.009,12.586.009,18.878,0,.941-.381,1.327-1.323,1.327-2.9,0-5.8,0-8.706.01a1.451,1.451,0,0,0-.7.193A12.241,12.241,0,0,1,10.724,38a1.368,1.368,0,0,0-.664-.177c-2.873-.011-5.747-.008-8.621-.008-1.063,0-1.419-.351-1.419-1.4V26.572m32.7,9.11c.008-.141.019-.251.019-.36q0-8.978,0-17.956a15.307,15.307,0,0,0-30.613.124c-.016,5.916,0,11.83,0,17.744,0,.148.012.294.018.43h5.9c-.074-.1-.111-.163-.154-.216a12.451,12.451,0,0,1-2.81-8.169c.016-2.72,0-5.439,0-8.158,0-1.059.31-1.382,1.354-1.427A25.436,25.436,0,0,0,19.1,13.684a1.406,1.406,0,0,1,1.7-.039c1.311.861,2.626,1.718,3.962,2.537a8.716,8.716,0,0,0,3.914,1.524,1.059,1.059,0,0,1,1.106,1.2c0,2.958.026,5.916-.009,8.872a12.121,12.121,0,0,1-2.689,7.536c-.081.1-.154.212-.266.366ZM7.212,19.789c-.009.134-.023.243-.023.352,0,2.509,0,5.018,0,7.527a9.326,9.326,0,0,0,.1,1.34,10.24,10.24,0,0,0,12.2,8.654,10.136,10.136,0,0,0,8.1-8.919c.164-2.921.074-5.856.087-8.784a.367.367,0,0,0-.2-.287,16.555,16.555,0,0,1-5-2.436c-.823-.532-1.638-1.076-2.451-1.61A29.152,29.152,0,0,1,7.212,19.789" transform="translate(0 0)" fill="#0a0a0a"/>
  </g>
</svg>
