<svg id="Grupo_314" data-name="Grupo 314" xmlns="http://www.w3.org/2000/svg" xmlns:xlink="http://www.w3.org/1999/xlink" width="40.06" height="40" viewBox="0 0 40.06 40">
  <defs>
    <clipPath id="clip-path">
      <rect id="Retângulo_153" data-name="Retângulo 153" width="40.06" height="40" fill="#0a0a0a"/>
    </clipPath>
  </defs>
  <g id="Grupo_313" data-name="Grupo 313" clip-path="url(#clip-path)">
    <path id="Caminho_583" data-name="Caminho 583" d="M31.356,10.183c.124-.177.2-.281.276-.392.992-1.513,1.971-3.034,2.98-4.535a2.886,2.886,0,0,1,5.021.431,2.826,2.826,0,0,1-.256,2.86q-2.109,3.234-4.224,6.465c-.814,1.247-1.635,2.489-2.432,3.747a1.063,1.063,0,0,0-.156.653q.755,5.879,1.542,11.754a2.6,2.6,0,0,1-2.273,3.087c-.823.135-1.667.163-2.481.34-1.056.23-2.1.54-3.134.85q-7.073,2.117-14.138,4.25a2.629,2.629,0,0,1-3.516-1.88Q4.431,24.078.3,10.34A2.636,2.636,0,0,1,2.24,6.729c1.505-.449,3.008-.907,4.515-1.35.254-.075.376-.162.391-.47A2.608,2.608,0,0,1,9.579,2.479Q16.534,1.572,23.486.652c1.283-.169,2.566-.343,3.85-.5a2.561,2.561,0,0,1,2.955,2.187c.358,2.464.663,4.937.992,7.405.015.119.039.238.073.442m.06,10.58c-.135.186-.216.292-.289.4q-1.175,1.8-2.351,3.6a2.156,2.156,0,0,1-.369.448c-1.078.945-2.151,1.9-3.26,2.807a1.961,1.961,0,0,1-1.012.422,1.68,1.68,0,0,1-1.75-2.147c.142-.545.321-1.08.5-1.677l-3.494.454c-1.642.214-3.283.435-4.926.634-.491.06-.787-.166-.824-.554s.194-.652.684-.718q4.3-.584,8.6-1.156c.3-.039.48-.13.543-.447a5.345,5.345,0,0,1,.931-1.984c.491-.71.948-1.441,1.418-2.165.063-.1.115-.2.2-.361-.426.055-.783.1-1.14.148-1.365.184-2.729.38-4.095.551-.49.061-.785-.158-.836-.546s.2-.659.68-.724c2.013-.274,4.026-.536,6.038-.822a.781.781,0,0,0,.487-.3q1.495-2.239,2.947-4.505a.8.8,0,0,0,.117-.5q-.584-4.469-1.191-8.935a1.324,1.324,0,0,0-1.6-1.242c-1.215.146-2.429.306-3.642.465q-4.656.611-9.31,1.227c-1.655.218-3.311.427-4.964.663A1.276,1.276,0,0,0,8.42,5.244c.242,1.9.494,3.807.745,5.71q.735,5.565,1.471,11.128.791,6,1.581,12A1.29,1.29,0,0,0,13.8,35.321q4.76-.611,9.518-1.242,4.179-.548,8.358-1.1A1.291,1.291,0,0,0,32.836,31.5c-.466-3.544-.937-7.087-1.42-10.741M20.251,35.884c0-.028,0-.055,0-.083-.124.007-.248,0-.371.02-1.986.26-3.974.513-5.958.789a2.581,2.581,0,0,1-2.945-2.15c-.247-1.651-.448-3.308-.666-4.963Q9.7,24.885,9.095,20.272q-.649-4.944-1.3-9.889c-.166-1.267-.335-2.534-.508-3.833L2.55,7.978a1.345,1.345,0,0,0-1.039,1.9Q5.654,23.655,9.8,37.428a1.356,1.356,0,0,0,1.917,1.026q2.556-.768,5.109-1.542l3.424-1.028m13.2-26.516c-2.762,4.23-5.489,8.407-8.232,12.607l2.7,1.759c2.759-4.225,5.492-8.409,8.234-12.608l-2.7-1.758m1.976-2.956c.9.589,1.772,1.165,2.646,1.741a1.733,1.733,0,0,0,.365-2,1.52,1.52,0,0,0-1.449-.884,1.672,1.672,0,0,0-1.562,1.142M24.671,23.165c-.152.5-.284.937-.39,1.287L26,25.584l1.011-.889-2.339-1.529m12.18-13.116c.191-.295.352-.543.526-.81l-2.7-1.758-.519.813,2.69,1.754M25,26.45l-1.1-.717a4.182,4.182,0,0,0-.253.818.691.691,0,0,0,.168.531c.1.079.371.025.514-.058A5.169,5.169,0,0,0,25,26.45" transform="translate(0.013 0.013)" fill="#0a0a0a"/>
    <path id="Caminho_584" data-name="Caminho 584" d="M31.356,10.183c.124-.177.2-.281.276-.392.992-1.513,1.971-3.034,2.98-4.535a2.886,2.886,0,0,1,5.021.431,2.826,2.826,0,0,1-.256,2.86q-2.109,3.234-4.224,6.465c-.814,1.247-1.635,2.489-2.432,3.747a1.063,1.063,0,0,0-.156.653q.755,5.879,1.542,11.754a2.6,2.6,0,0,1-2.273,3.087c-.823.135-1.667.163-2.481.34-1.056.23-2.1.54-3.134.85q-7.073,2.117-14.138,4.25a2.629,2.629,0,0,1-3.516-1.88Q4.431,24.078.3,10.34A2.636,2.636,0,0,1,2.24,6.729c1.505-.449,3.008-.907,4.515-1.35.254-.075.376-.162.391-.47A2.608,2.608,0,0,1,9.579,2.479Q16.534,1.572,23.486.652c1.283-.169,2.566-.343,3.85-.5a2.561,2.561,0,0,1,2.955,2.187c.358,2.464.663,4.937.992,7.405C31.3,9.86,31.322,9.979,31.356,10.183Zm.06,10.58c-.135.186-.216.292-.289.4q-1.175,1.8-2.351,3.6a2.156,2.156,0,0,1-.369.448c-1.078.945-2.151,1.9-3.26,2.807a1.961,1.961,0,0,1-1.012.422,1.68,1.68,0,0,1-1.75-2.147c.142-.545.321-1.08.5-1.677l-3.494.454c-1.642.214-3.283.435-4.926.634-.491.06-.787-.166-.824-.554s.194-.652.684-.718q4.3-.584,8.6-1.156c.3-.039.48-.13.543-.447a5.345,5.345,0,0,1,.931-1.984c.491-.71.948-1.441,1.418-2.165.063-.1.115-.2.2-.361-.426.055-.783.1-1.14.148-1.365.184-2.729.38-4.095.551-.49.061-.785-.158-.836-.546s.2-.659.68-.724c2.013-.274,4.026-.536,6.038-.822a.781.781,0,0,0,.487-.3q1.495-2.239,2.947-4.505a.8.8,0,0,0,.117-.5q-.584-4.469-1.191-8.935a1.324,1.324,0,0,0-1.6-1.242c-1.215.146-2.429.306-3.642.465q-4.656.611-9.31,1.227c-1.655.218-3.311.427-4.964.663A1.276,1.276,0,0,0,8.42,5.244c.242,1.9.494,3.807.745,5.71q.735,5.565,1.471,11.128.791,6,1.581,12A1.29,1.29,0,0,0,13.8,35.321q4.76-.611,9.518-1.242,4.179-.548,8.358-1.1A1.291,1.291,0,0,0,32.836,31.5C32.37,27.96,31.9,24.416,31.415,20.763ZM20.251,35.884c0-.028,0-.055,0-.083-.124.007-.248,0-.371.02-1.986.26-3.974.513-5.958.789a2.581,2.581,0,0,1-2.945-2.15c-.247-1.651-.448-3.308-.666-4.963Q9.7,24.885,9.095,20.272q-.649-4.944-1.3-9.889c-.166-1.267-.335-2.534-.508-3.833L2.55,7.978a1.345,1.345,0,0,0-1.039,1.9Q5.654,23.655,9.8,37.428a1.356,1.356,0,0,0,1.917,1.026q2.556-.768,5.109-1.542Zm13.2-26.516c-2.762,4.23-5.489,8.407-8.232,12.607l2.7,1.759c2.759-4.225,5.492-8.409,8.234-12.608Zm1.976-2.956c.9.589,1.772,1.165,2.646,1.741a1.733,1.733,0,0,0,.365-2,1.52,1.52,0,0,0-1.449-.884A1.672,1.672,0,0,0,35.425,6.412ZM24.671,23.165c-.152.5-.284.937-.39,1.287L26,25.584l1.011-.889Zm12.18-13.116c.191-.295.352-.543.526-.81l-2.7-1.758-.519.813ZM25,26.45l-1.1-.717a4.182,4.182,0,0,0-.253.818.691.691,0,0,0,.168.531c.1.079.371.025.514-.058A5.169,5.169,0,0,0,25,26.45Z" transform="translate(0.013 0.013)" fill="#0a0a0a"/>
    <path id="Caminho_585" data-name="Caminho 585" d="M11.858,13.149c-.5.01-.788-.214-.826-.57a.647.647,0,0,1,.623-.7q3.7-.5,7.4-.991,3.246-.432,6.492-.853c.535-.07.858.138.9.553.04.387-.228.657-.738.724q-6.657.881-13.314,1.756c-.206.028-.412.06-.536.077" transform="translate(1.141 1.037)" fill="#0a0a0a"/>
    <path id="Caminho_586" data-name="Caminho 586" d="M11.858,13.149c-.5.01-.788-.214-.826-.57a.647.647,0,0,1,.623-.7q3.7-.5,7.4-.991,3.246-.432,6.492-.853c.535-.07.858.138.9.553.04.387-.228.657-.738.724q-6.657.881-13.314,1.756C12.188,13.1,11.983,13.131,11.858,13.149Z" transform="translate(1.141 1.037)" fill="#0a0a0a"/>
    <path id="Caminho_587" data-name="Caminho 587" d="M14.64,7.422c-.46.012-.744-.2-.79-.561s.2-.653.644-.714c2.052-.279,4.107-.547,6.161-.82l3.516-.466c.137-.018.276-.035.414-.045.48-.033.779.179.812.573.032.367-.217.64-.663.7q-1.466.205-2.935.4-3.453.455-6.906.906c-.1.013-.194.021-.252.026" transform="translate(1.432 0.498)" fill="#0a0a0a"/>
    <path id="Caminho_588" data-name="Caminho 588" d="M14.64,7.422c-.46.012-.744-.2-.79-.561s.2-.653.644-.714c2.052-.279,4.107-.547,6.161-.82l3.516-.466c.137-.018.276-.035.414-.045.48-.033.779.179.812.573.032.367-.217.64-.663.7q-1.466.205-2.935.4-3.453.455-6.906.906C14.794,7.408,14.7,7.416,14.64,7.422Z" transform="translate(1.432 0.498)" fill="#0a0a0a"/>
    <path id="Caminho_589" data-name="Caminho 589" d="M13.919,28.709c-.5.015-.8-.212-.823-.587a.647.647,0,0,1,.64-.679q2.374-.323,4.748-.633a.657.657,0,1,1,.17,1.293c-1.364.18-2.728.349-4.092.522l-.643.084" transform="translate(1.355 2.773)" fill="#0a0a0a"/>
    <path id="Caminho_590" data-name="Caminho 590" d="M13.919,28.709c-.5.015-.8-.212-.823-.587a.647.647,0,0,1,.64-.679q2.374-.323,4.748-.633a.657.657,0,1,1,.17,1.293c-1.364.18-2.728.349-4.092.522Z" transform="translate(1.355 2.773)" fill="#0a0a0a"/>
    <path id="Caminho_591" data-name="Caminho 591" d="M12.529,18.239c-.541.008-.806-.2-.84-.565a.621.621,0,0,1,.6-.7c.909-.128,1.818-.25,2.731-.358a.642.642,0,1,1,.177,1.272c-.921.135-1.847.246-2.671.354" transform="translate(1.209 1.718)" fill="#0a0a0a"/>
    <path id="Caminho_592" data-name="Caminho 592" d="M12.529,18.239c-.541.008-.806-.2-.84-.565a.621.621,0,0,1,.6-.7c.909-.128,1.818-.25,2.731-.358a.642.642,0,1,1,.177,1.272C14.279,18.019,13.353,18.131,12.529,18.239Z" transform="translate(1.209 1.718)" fill="#0a0a0a"/>
  </g>
</svg>
