<svg id="Grupo_326" data-name="Grupo 326" xmlns="http://www.w3.org/2000/svg" xmlns:xlink="http://www.w3.org/1999/xlink" width="42.292" height="40" viewBox="0 0 42.292 40">
  <defs>
    <clipPath id="clip-path">
      <rect id="Retângulo_155" data-name="Retângulo 155" width="42.292" height="40" fill="#0a0a0a"/>
    </clipPath>
  </defs>
  <g id="Grupo_325" data-name="Grupo 325" clip-path="url(#clip-path)">
    <path id="Caminho_606" data-name="Caminho 606" d="M16.724,26.366c.336.583.647,1.116.95,1.651a.9.9,0,0,1-.389,1.439c-.639.373-1.28.741-1.943,1.126.807,1.4,1.6,2.767,2.386,4.133A3.286,3.286,0,0,1,17.99,37.8a3.14,3.14,0,0,1-2.552,1.98,3.147,3.147,0,0,1-3.066-1.223,7.965,7.965,0,0,1-.622-.971q-1.822-3.14-3.626-6.289c-.147-.257-.267-.3-.546-.2A5.765,5.765,0,0,1,.553,28.046a5.71,5.71,0,0,1,2.109-7.287c2.259-1.391,4.586-2.672,6.876-4.012a2.223,2.223,0,0,0,.614-.528Q15.4,9.558,20.629,2.876A2.59,2.59,0,0,1,23.173,1.7a2.491,2.491,0,0,1,1.84,1.322c.917,1.6,1.846,3.191,2.753,4.794a.558.558,0,0,0,.61.341c.85-.072,1.7-.1,2.553-.169a1.051,1.051,0,0,1,1.113.6c.459.83.931,1.653,1.423,2.464a1.044,1.044,0,0,1-.03,1.26c-.493.712-.952,1.449-1.444,2.162a.492.492,0,0,0-.024.621c.867,1.467,1.73,2.939,2.559,4.428a2.477,2.477,0,0,1-1.8,3.709c-1.1.192-2.188.41-3.281.623q-6.15,1.2-12.3,2.412c-.12.023-.239.058-.42.1M20.719,5.508a.939.939,0,0,0-.1.081q-4.5,5.73-8.988,11.468a.507.507,0,0,0,0,.453c1.342,2.351,2.7,4.694,4.049,7.044a.377.377,0,0,0,.481.223Q21.8,23.655,27.44,22.559c.922-.18,1.843-.362,2.8-.553-3.191-5.526-6.351-11-9.526-16.5m-10.56,12.8c-.521.3-.987.567-1.45.834-1.747,1.017-3.52,1.99-5.231,3.063a4.018,4.018,0,0,0-1.617,4.641A4.124,4.124,0,0,0,7.9,29.138c1.963-1.11,3.908-2.251,5.86-3.379.166-.1.329-.194.519-.307l-4.124-7.142m23.053,2.34a5.643,5.643,0,0,0-.258-.55q-3.067-5.325-6.141-10.644-1.6-2.768-3.194-5.537a.99.99,0,0,0-.732-.6.922.922,0,0,0-.924.563.493.493,0,0,0-.014.42q4.923,8.563,9.867,17.111c.047.082.1.186.173.222.469.217,1.218-.31,1.224-.984M9.4,30.192c.081.148.137.256.2.36q1.893,3.283,3.791,6.564a3.263,3.263,0,0,0,.292.448,1.647,1.647,0,0,0,2.768-.366,1.713,1.713,0,0,0-.153-1.65q-1.962-3.385-3.913-6.778c-.04-.068-.09-.13-.148-.214L9.4,30.192M28.911,9.778c.669,1.157,1.3,2.249,1.96,3.393.338-.509.64-.949.918-1.4a.384.384,0,0,0-.018-.324c-.289-.529-.593-1.05-.9-1.569-.051-.086-.152-.2-.227-.2-.557.019-1.113.062-1.732.1M15.937,28.322l-.821-1.43-1.424.827.823,1.421,1.422-.818" transform="translate(0 0.185)" fill="#0a0a0a"/>
    <path id="Caminho_607" data-name="Caminho 607" d="M33.161,7.429a3.121,3.121,0,0,1-.627-.562.7.7,0,0,1,.13-.873,1.477,1.477,0,0,1,.362-.269q2.138-1.2,4.283-2.382a.858.858,0,0,1,1.262.223.827.827,0,0,1-.394,1.179c-.546.319-1.1.617-1.654.923-.876.489-1.749.981-2.629,1.461-.2.108-.423.174-.733.3" transform="translate(3.604 0.352)" fill="#0a0a0a"/>
    <path id="Caminho_608" data-name="Caminho 608" d="M33.65,10.17a1.406,1.406,0,0,1,.224.032c.981.264,1.962.523,2.94.8.569.159.828.544.711,1.021a.833.833,0,0,1-1.138.566c-1-.259-1.991-.518-2.981-.8a.818.818,0,0,1,.243-1.618" transform="translate(3.636 1.13)" fill="#0a0a0a"/>
    <path id="Caminho_609" data-name="Caminho 609" d="M30.132,0a.806.806,0,0,1,.859.933c-.267,1.12-.566,2.233-.889,3.339a.765.765,0,0,1-.947.529.737.737,0,0,1-.606-.889c.268-1.147.583-2.282.906-3.416a.723.723,0,0,1,.677-.5" transform="translate(3.17)" fill="#0a0a0a"/>
    <path id="Caminho_610" data-name="Caminho 610" d="M5.471,25.748a2.613,2.613,0,0,1-2.078-1.136.827.827,0,0,1,.12-1.207.817.817,0,0,1,1.164.182c.49.544.751.586,1.393.219.381-.218.756-.449,1.143-.653A.838.838,0,0,1,8.4,23.43a.817.817,0,0,1-.34,1.133c-.526.321-1.061.632-1.616.9a5.779,5.779,0,0,1-.973.284" transform="translate(0.354 2.558)" fill="#0a0a0a"/>
    <path id="Caminho_611" data-name="Caminho 611" d="M9.849,23.148a.805.805,0,1,1,.864-.747.8.8,0,0,1-.864.747" transform="translate(1.009 2.393)" fill="#0a0a0a"/>
  </g>
</svg>
