<svg id="Group_6" data-name="Group 6" xmlns="http://www.w3.org/2000/svg" xmlns:xlink="http://www.w3.org/1999/xlink" width="266.681" height="83.2" viewBox="0 0 266.681 83.2">
  <defs>
    <clipPath id="clip-path">
      <rect id="Rectangle_6" data-name="Rectangle 6" width="266.681" height="83.2" fill="#863b35"/>
    </clipPath>
  </defs>
  <g id="Group_5" data-name="Group 5" clip-path="url(#clip-path)">
    <path id="Path_23" data-name="Path 23" d="M16.227,23.637H23.78V59.613a51.151,51.151,0,0,1-9.8,1.021C4.746,60.633,0,56.449,0,48.488c0-7.705,5.1-12.706,12.962-12.706a11.467,11.467,0,0,1,3.266.408Zm0,18.677a7.228,7.228,0,0,0-2.551-.408c-3.827,0-6.021,2.347-6.021,6.481,0,4.031,2.092,6.226,5.97,6.226a17.047,17.047,0,0,0,2.6-.2Z" transform="translate(0 -11.575)" fill="#863b35"/>
    <path id="Path_24" data-name="Path 24" d="M60.552,48.637v17.5c0,6.021-.459,8.93-1.786,11.431-1.225,2.4-2.858,3.929-6.175,5.562L45.6,79.816c3.317-1.582,4.95-2.96,5.97-5.052C52.642,72.621,53,70.12,53,63.538v-14.9Z" transform="translate(-22.33 -23.818)" fill="#863b35"/>
    <path id="Path_25" data-name="Path 25" d="M87.331,49.782a22.5,22.5,0,0,1,10-2.245c3.878,0,6.43,1.021,7.552,3.011.612,1.123.816,2.6.816,5.715V71.572a79.453,79.453,0,0,1-10.767.816c-6.328,0-9.134-2.194-9.134-7.093,0-5.307,3.776-7.756,13.013-8.522V55.089c0-1.378-.663-1.837-2.6-1.837a19.654,19.654,0,0,0-8.879,2.3ZM99.119,61.825c-5,.51-6.634,1.276-6.634,3.215,0,1.48.919,2.143,3.011,2.143a20.1,20.1,0,0,0,3.623-.357Z" transform="translate(-42.017 -23.279)" fill="#863b35"/>
    <path id="Path_26" data-name="Path 26" d="M136.751,49.272a45.183,45.183,0,0,1,11.839-1.735c3.878,0,6.685.868,8.318,2.6,1.582,1.633,2.041,3.368,2.041,7.144v14.8H151.4V57.59c0-2.909-.97-3.98-3.674-3.98a10.979,10.979,0,0,0-3.47.561V72.082H136.7Z" transform="translate(-66.943 -23.279)" fill="#863b35"/>
    <path id="Path_27" data-name="Path 27" d="M189.812,76.265a17.126,17.126,0,0,0,8.063,1.99c4.95,0,7.042-1.99,7.042-6.787v-.153a10.652,10.652,0,0,1-4.9,1.021c-6.634,0-10.818-4.338-10.818-11.278,0-8.573,6.226-13.421,17.248-13.421a49.177,49.177,0,0,1,9.849,1.072v5.919a26.834,26.834,0,0,0-4.286-.663v.765l.1,3.164.051,4.133c.051,1.021.051,2.041.1,3.062V67.13c0,6.481-.561,9.492-2.143,11.992-2.347,3.674-6.43,5.511-12.2,5.511a21.424,21.424,0,0,1-8.114-1.48Zm15-22.555h-.765a8.3,8.3,0,0,0-4.338,1.072c-1.786,1.021-2.756,2.909-2.756,5.562,0,3.776,1.837,5.919,5.205,5.919a9.374,9.374,0,0,0,2.858-.51v-2.6c0-.868-.051-1.837-.051-2.909l-.051-3.47-.051-2.5Z" transform="translate(-92.652 -23.328)" fill="#863b35"/>
    <path id="Path_28" data-name="Path 28" d="M259.5,47.337c7.552,0,12.145,4.746,12.145,12.451,0,7.91-4.8,12.808-12.451,12.808-7.552,0-12.2-4.746-12.2-12.4,0-7.91,4.8-12.859,12.5-12.859m-.153,19.238c2.909,0,4.593-2.4,4.593-6.583,0-4.133-1.684-6.583-4.542-6.583-3.011,0-4.695,2.4-4.695,6.583s1.684,6.583,4.644,6.583" transform="translate(-120.957 -23.181)" fill="#863b35"/>
    <path id="Path_29" data-name="Path 29" d="M322.908,55.038a9.529,9.529,0,0,0-5.256-1.48c-4.337,0-7.3,2.4-7.3,6.175,0,3.929,2.909,6.43,7.3,6.43a10.977,10.977,0,0,0,5.511-1.429v6.124a14.949,14.949,0,0,1-7.4,1.735c-8.012,0-13.064-4.695-13.064-12.2,0-7.705,5.562-12.859,13.676-12.859a15.186,15.186,0,0,1,6.583,1.429Z" transform="translate(-148.233 -23.279)" fill="#863b35"/>
    <path id="Path_30" data-name="Path 30" d="M361,47.337c7.552,0,12.145,4.746,12.145,12.451,0,7.91-4.8,12.808-12.451,12.808-7.552,0-12.2-4.746-12.2-12.4.051-7.91,4.848-12.859,12.5-12.859m-.153,19.238c2.909,0,4.593-2.4,4.593-6.583,0-4.133-1.684-6.583-4.542-6.583-3.011,0-4.695,2.4-4.695,6.583s1.735,6.583,4.644,6.583" transform="translate(-170.662 -23.181)" fill="#863b35"/>
    <path id="Path_31" data-name="Path 31" d="M406.851,49.272a45.183,45.183,0,0,1,11.839-1.735c3.878,0,6.685.868,8.318,2.6,1.582,1.633,2.041,3.368,2.041,7.144v14.8H421.5V57.59c0-2.909-.97-3.98-3.674-3.98a10.979,10.979,0,0,0-3.47.561V72.082H406.8Z" transform="translate(-199.212 -23.279)" fill="#863b35"/>
    <rect id="Rectangle_4" data-name="Rectangle 4" width="4.338" height="4.491" transform="translate(234.532 44.313)" fill="#863b35"/>
    <path id="Path_32" data-name="Path 32" d="M477.023,78.936c.1,1.48,1.276,2.3,3.266,2.3a7.314,7.314,0,0,0,4.031-1.174v2.909a9.5,9.5,0,0,1-4.542,1.123c-4.031,0-6.379-2.3-6.379-6.226,0-3.827,2.4-6.328,6.073-6.328,3.521,0,5.511,2.245,5.511,6.124v1.225Zm4.44-2.654c-.1-1.378-.816-2.092-2.041-2.092a2.291,2.291,0,0,0-2.347,2.092Z" transform="translate(-231.826 -35.032)" fill="#863b35"/>
    <path id="Path_33" data-name="Path 33" d="M504.776,72.137v6.889c0,1.531.459,2.041,1.939,2.041a7.416,7.416,0,0,0,1.531-.153V72.137h3.776V83.721l-.459.051a27.622,27.622,0,0,1-5,.51,6.294,6.294,0,0,1-4.338-1.225c-.919-.816-1.225-1.837-1.225-4.082V72.137Z" transform="translate(-245.342 -35.326)" fill="#863b35"/>
    <rect id="Rectangle_5" data-name="Rectangle 5" width="7.552" height="7.756" transform="translate(30.669 12.062)" fill="#863b35"/>
    <path id="Path_34" data-name="Path 34" d="M253.432,118.753a57.052,57.052,0,0,0,1.667,5.968c.09.3.242.788.575,1.727.273.879.3.909.455,1.364l.242,3,.273-3,.181-.454c.515-1.364,1.061-2.878,1.576-4.393.546-1.636.909-2.847,1.242-4.211h4.817l-.182.636c-.787,2.575-1.515,4.6-2.484,7-.939,2.272-2,4.666-3.03,6.7l-.242.515h-4.666l-.242-.515a91.463,91.463,0,0,1-5.09-14.33Z" transform="translate(-121.703 -58.154)" fill="#863b35"/>
    <path id="Path_35" data-name="Path 35" d="M283.668,104.683h4.666v4.787h-4.666Zm0,7.18h4.666v14.845h-4.666Z" transform="translate(-138.913 -51.264)" fill="#863b35"/>
    <path id="Path_36" data-name="Path 36" d="M299.227,135.852a10.614,10.614,0,0,0,5,1.243c3.06,0,4.363-1.243,4.363-4.211v-.09a6.384,6.384,0,0,1-3.03.636c-4.09,0-6.7-2.7-6.7-6.968,0-5.3,3.847-8.3,10.664-8.3a29.428,29.428,0,0,1,6.089.666v3.665a23.348,23.348,0,0,0-2.636-.424v.485l.061,1.969.031,2.545c.03.636.03,1.273.06,1.909v1.272c0,4-.333,5.878-1.333,7.423-1.454,2.272-3.969,3.393-7.543,3.393a13.343,13.343,0,0,1-5.029-.909Zm9.27-13.936h-.485a5.2,5.2,0,0,0-2.727.667,3.614,3.614,0,0,0-1.7,3.423c0,2.333,1.181,3.665,3.241,3.665a5.951,5.951,0,0,0,1.757-.3v-1.605c0-.546-.03-1.151-.03-1.788l-.031-2.151-.03-1.546Z" transform="translate(-146.354 -57.863)" fill="#863b35"/>
    <path id="Path_37" data-name="Path 37" d="M342.087,117.982c4.665,0,7.513,2.939,7.513,7.695,0,4.878-2.969,7.937-7.695,7.937-4.665,0-7.543-2.938-7.543-7.664,0-4.908,2.968-7.968,7.725-7.968M342,129.858c1.818,0,2.878-1.484,2.878-4.059,0-2.545-1.03-4.059-2.848-4.059-1.878,0-2.939,1.484-2.939,4.059s1.06,4.059,2.909,4.059" transform="translate(-163.738 -57.776)" fill="#863b35"/>
    <path id="Path_38" data-name="Path 38" d="M89.423,12.962l.433-.3a34.583,34.583,0,0,0,4.661-3.511c1.344-1.279,1.907-2.3,1.907-3.468A2.476,2.476,0,0,0,93.65,3.121,5.26,5.26,0,0,0,90.1,4.53V1.387A7.205,7.205,0,0,1,94.408,0c3.338,0,5.506,2.06,5.506,5.245,0,2.84-1.691,5.138-5.527,7.478l5.939-.043v3.1h-10.9Z" transform="translate(-43.791)" fill="#863b35"/>
    <path id="Path_39" data-name="Path 39" d="M116.471,2.143A5.087,5.087,0,0,1,120.633.127a4.988,4.988,0,0,1,4.14,2.016,9.481,9.481,0,0,1,1.517,5.831,9.818,9.818,0,0,1-1.647,6.156,5.149,5.149,0,0,1-4.162,2.016,5.047,5.047,0,0,1-4.14-2.016A9.478,9.478,0,0,1,114.824,8.3a9.955,9.955,0,0,1,1.647-6.156m4.1,11.011c1.366,0,2.124-1.777,2.124-5.028,0-3.23-.759-5.007-2.124-5.007-1.387,0-2.146,1.777-2.146,5.007,0,3.251.759,5.028,2.146,5.028" transform="translate(-56.23 -0.062)" fill="#863b35"/>
    <path id="Path_40" data-name="Path 40" d="M140.9,12.962l.433-.3A34.583,34.583,0,0,0,146,9.147c1.344-1.279,1.907-2.3,1.907-3.468a2.476,2.476,0,0,0-2.774-2.558,5.26,5.26,0,0,0-3.555,1.408V1.387A7.2,7.2,0,0,1,145.889,0c3.338,0,5.506,2.06,5.506,5.245,0,2.84-1.691,5.138-5.527,7.478l5.939-.043v3.1H140.9Z" transform="translate(-69.001)" fill="#863b35"/>
    <path id="Path_41" data-name="Path 41" d="M176.99,9.725v2.709h-2.016v3.511h-3.338V12.435h-7.37a40.3,40.3,0,0,1,4.487-7.954c2.124-3.056,3.533-4.14,5.311-4.14a6.325,6.325,0,0,1,.91.087v9.3Zm-5.224-2.514a15.567,15.567,0,0,1,.39-3.49l-.477.846a35.4,35.4,0,0,0-1.821,3.078c-.26.455-.563,1.084-.78,1.539a2.812,2.812,0,0,0-.3.542h2.991Z" transform="translate(-80.442 -0.166)" fill="#863b35"/>
  </g>
</svg>
