<?xml version="1.0" encoding="utf-8"?>
<!-- Generator: Adobe Illustrator 25.0.0, SVG Export Plug-In . SVG Version: 6.00 Build 0)  -->
<svg version="1.1" id="svg71" xmlns="http://www.w3.org/2000/svg" xmlns:xlink="http://www.w3.org/1999/xlink" x="0px" y="0px"
	 viewBox="0 0 820.2 520.4" style="enable-background:new 0 0 820.2 520.4;" xml:space="preserve">
<style type="text/css">
	.st0{fill:#863b35;}
</style>
<path id="path12" class="st0" d="M180.6,204.6h14.8v70.5c-7.6,1.4-13.1,2-19.2,2c-18.1,0-27.4-8.2-27.4-23.8
	c0-15.1,10-24.9,25.4-24.9c2.4,0,4.2,0.2,6.4,0.8V204.6z M180.6,241.2c-1.7-0.6-3.2-0.8-5-0.8c-7.5,0-11.8,4.6-11.8,12.7
	c0,7.9,4.1,12.2,11.7,12.2c1.6,0,3-0.1,5.1-0.4V241.2z"/>
<path id="path14" class="st0" d="M223.7,229.6v34.3c0,11.8-0.9,17.5-3.5,22.4c-2.4,4.7-5.6,7.7-12.1,10.9l-13.7-6.5
	c6.5-3.1,9.7-5.8,11.7-9.9c2.1-4.2,2.8-9.1,2.8-22v-29.2L223.7,229.6z"/>
<path id="path16" class="st0" d="M237.6,232.9c6.5-3.1,12.8-4.4,19.6-4.4c7.6,0,12.6,2,14.8,5.9c1.2,2.2,1.6,5.1,1.6,11.2v30
	c-6.6,1-15,1.6-21.1,1.6c-12.4,0-17.9-4.3-17.9-13.9c0-10.4,7.4-15.2,25.5-16.7v-3.3c0-2.7-1.3-3.6-5.1-3.6
	c-5.5,0-11.6,1.5-17.4,4.5V232.9L237.6,232.9z M260.7,256.5c-9.8,1-13,2.5-13,6.3c0,2.9,1.8,4.2,5.9,4.2c2.2,0,4.2-0.2,7.1-0.7
	V256.5z"/>
<path id="path18" class="st0" d="M285.6,231.9c8.7-2.3,15.9-3.4,23.2-3.4c7.6,0,13.1,1.7,16.3,5.1c3.1,3.2,4,6.6,4,14v29h-14.8
	v-28.4c0-5.7-1.9-7.8-7.2-7.8c-2,0-3.8,0.2-6.8,1.1v35.1h-14.8L285.6,231.9L285.6,231.9z"/>
<path id="path20" class="st0" d="M339.2,284.7c5.2,2.7,10.4,3.9,15.8,3.9c9.7,0,13.8-3.9,13.8-13.3V275c-2.9,1.4-5.8,2-9.6,2
	c-13,0-21.2-8.5-21.2-22.1c0-16.8,12.2-26.3,33.8-26.3c6.3,0,12.2,0.7,19.3,2.1v11.6c-3.9-0.8-5.4-1.1-8.4-1.3v1.5l0.2,6.2l0.1,8.1
	c0.1,2,0.1,4,0.2,6v4c0,12.7-1.1,18.6-4.2,23.5c-4.6,7.2-12.6,10.8-23.9,10.8c-5.8,0-10.8-0.9-15.9-2.9L339.2,284.7L339.2,284.7z
	 M368.6,240.5h-1.5c-2.9-0.1-6.2,0.7-8.5,2.1c-3.5,2-5.4,5.7-5.4,10.9c0,7.4,3.6,11.6,10.2,11.6c2,0,3.6-0.4,5.6-1V259
	c0-1.7-0.1-3.6-0.1-5.7l-0.1-6.8l-0.1-4.9L368.6,240.5L368.6,240.5z"/>
<path id="path22" class="st0" d="M420.3,228.3c14.8,0,23.8,9.3,23.8,24.4c0,15.5-9.4,25.1-24.4,25.1c-14.8,0-23.9-9.3-23.9-24.3
	C395.8,238,405.2,228.3,420.3,228.3L420.3,228.3z M420,266c5.7,0,9-4.7,9-12.9c0-8.1-3.3-12.9-8.9-12.9c-5.9,0-9.2,4.7-9.2,12.9
	C410.9,261.3,414.2,266,420,266z"/>
<path id="path24" class="st0" d="M491.1,243.2c-3.4-2-6.3-2.9-10.3-2.9c-8.5,0-14.3,4.7-14.3,12.1c0,7.7,5.7,12.6,14.3,12.6
	c4,0,6.9-0.8,10.8-2.8v12c-4.8,2.4-8.7,3.4-14.5,3.4c-15.7,0-25.6-9.2-25.6-23.9c0-15.1,10.9-25.2,26.8-25.2c4.8,0,8.2,0.8,12.9,2.8
	L491.1,243.2L491.1,243.2z"/>
<path id="path26" class="st0" d="M521.8,228.3c14.8,0,23.8,9.3,23.8,24.4c0,15.5-9.4,25.1-24.4,25.1c-14.8,0-23.9-9.3-23.9-24.3
	C497.4,238,506.8,228.3,521.8,228.3L521.8,228.3z M521.5,266c5.7,0,9-4.7,9-12.9c0-8.1-3.3-12.9-8.9-12.9c-5.9,0-9.2,4.7-9.2,12.9
	C512.4,261.3,515.8,266,521.5,266L521.5,266z"/>
<path id="path28" class="st0" d="M555.7,231.9c8.7-2.3,15.9-3.4,23.2-3.4c7.6,0,13.1,1.7,16.3,5.1c3.1,3.2,4,6.6,4,14v29h-14.8
	v-28.4c0-5.7-1.9-7.8-7.2-7.8c-2,0-3.8,0.2-6.8,1.1v35.1h-14.8L555.7,231.9z"/>
<path id="path30" class="st0" d="M608.4,267.8h8.5v8.8h-8.5V267.8z"/>
<path id="path32" class="st0" d="M629.3,267c0.2,2.9,2.5,4.5,6.4,4.5c2.9,0,5.6-0.8,7.9-2.3v5.7c-2.8,1.5-5.8,2.2-8.9,2.2
	c-7.9,0-12.5-4.5-12.5-12.2c0-7.5,4.7-12.4,11.9-12.4c6.9,0,10.8,4.4,10.8,12c0,0.4,0,1.1,0,1.9v0.5L629.3,267z M638,261.8
	c-0.2-2.7-1.6-4.1-4-4.1c-2.5,0-4.2,1.6-4.6,4.1H638z"/>
<path id="path34" class="st0" d="M657.2,253.1v13.5c0,3,0.9,4,3.8,4c1,0,2.1-0.1,3-0.3v-17.2h7.4v22.7l-0.9,0.1c-4,0.7-6.8,1-9.8,1
	c-4,0-6.7-0.8-8.5-2.4s-2.4-3.6-2.4-8v-13.4L657.2,253.1L657.2,253.1z"/>
<path id="rect38" class="st0" d="M208.9,204.6h14.8v15.2h-14.8V204.6z"/>
<path id="path54" class="st0" d="M237.6,204.4c4-1.6,7.8-3.3,10.2-4.6c5.4-2.8,7.4-5.1,7.4-7.9c0-2.6-2.1-4.1-5.4-4.1
	c-3.5,0-6.5,1.1-10.1,3.6v-8.9c3.8-2.4,7.5-3.4,12-3.4c8.5,0,13.9,4.6,13.9,11.9c0,6.4-3.8,10.4-13.1,13.9l16.8-0.7v8.5h-31.7
	L237.6,204.4z"/>
<path id="path56" class="st0" d="M291.8,179.3c9.7,0,16.2,6.7,16.2,16.9c0,10.6-6.7,17.5-16.9,17.5c-9.9,0-16.3-6.7-16.3-16.9
	C274.8,186.2,281.6,179.3,291.8,179.3L291.8,179.3z M291.2,205.5c4,0,6.4-3.4,6.4-8.9c0-5.6-2.3-9.1-6.1-9.1c-3.9,0-6.4,3.6-6.4,9
	C285.2,202.1,287.5,205.5,291.2,205.5z"/>
<path id="path58" class="st0" d="M313.9,204.4c4-1.6,7.8-3.3,10.2-4.6c5.4-2.8,7.4-5.1,7.4-7.9c0-2.6-2-4.1-5.4-4.1
	c-3.5,0-6.5,1.1-10.1,3.6v-8.9c3.8-2.4,7.5-3.4,12-3.4c8.5,0,13.9,4.6,13.9,11.9c0,6.4-3.8,10.4-13.1,13.9l16.8-0.7v8.5h-31.7
	L313.9,204.4L313.9,204.4z"/>
<path id="path58_1_" class="st0" d="M351.5,204.4c4-1.6,7.8-3.3,10.2-4.6c5.4-2.8,7.4-5.1,7.4-7.9c0-2.6-2-4.1-5.4-4.1
	c-3.5,0-6.5,1.1-10.1,3.6v-8.9c3.8-2.4,7.5-3.4,12-3.4c8.5,0,13.9,4.6,13.9,11.9c0,6.4-3.8,10.4-13.1,13.9l16.8-0.7v8.5h-31.7
	L351.5,204.4L351.5,204.4z"/>
<g>
	<path id="path22_2_" class="st0" d="M445.2,294.8c9.3,0,14.9,5.8,14.9,15.3c0,9.7-5.9,15.7-15.3,15.7c-9.3,0-14.9-5.8-14.9-15.2
		C429.9,300.9,435.8,294.8,445.2,294.8L445.2,294.8z M445.1,318.4c3.6,0,5.6-2.9,5.6-8.1c0-5.1-2.1-8.1-5.6-8.1
		c-3.7,0-5.8,2.9-5.8,8.1C439.4,315.4,441.4,318.4,445.1,318.4z"/>
	<path id="path22_1_" class="st0" d="M528.3,294.8c9.3,0,14.9,5.8,14.9,15.3c0,9.7-5.9,15.7-15.3,15.7c-9.3,0-14.9-5.8-14.9-15.2
		C513,300.9,518.9,294.8,528.3,294.8L528.3,294.8z M528.1,318.4c3.6,0,5.6-2.9,5.6-8.1c0-5.1-2.1-8.1-5.6-8.1
		c-3.7,0-5.8,2.9-5.8,8.1C522.4,315.4,524.5,318.4,528.1,318.4z"/>
	<path class="st0" d="M408.5,294.8c-6.9,0-12.7,1.2-12.7,1.2l0,44h9.3v-15.3c1.5,0.3,3.1,0.5,4.8,0.5c5.1,0,15-2.8,15-15.4
		S415.4,294.8,408.5,294.8z M408.1,317.8c-1.8,0-3-0.4-3-0.4v-14.9c0,0,0.9-0.3,3.1-0.3c2.2,0,7.5,0.3,7.5,7.7
		C415.7,317.3,409.9,317.8,408.1,317.8z"/>
	<path class="st0" d="M480.6,294.6c-6,0-14,2.8-14,2.8V325h9.3v-21.4c1.5-0.7,3.2-1.1,5.1-1.1c2.2,0,3,0.2,3,0.2v-8
		C482.4,294.7,480.6,294.6,480.6,294.6z"/>
	<path class="st0" d="M509.5,302.8v-8.1H503v-7.1h-9v7.1h-5.2v8.1h4.9v15.5c0,0-0.1,6.9,10.2,6.9c0,0,2,0,4.9-0.5v-7
		c0,0-0.9,0.4-2.5,0.4s-3.3-0.8-3.3-2.7l-0.1-12.5h0.1H509.5z"/>
</g>
</svg>
