<?xml version="1.0" encoding="utf-8"?>
<!-- Generator: Adobe Illustrator 25.0.0, SVG Export Plug-In . SVG Version: 6.00 Build 0)  -->
<svg version="1.1" id="Layer_1" xmlns="http://www.w3.org/2000/svg" xmlns:xlink="http://www.w3.org/1999/xlink" x="0px" y="0px"
	 viewBox="0 0 820.2 520.4" style="enable-background:new 0 0 820.2 520.4;" xml:space="preserve">
<style type="text/css">
	.st0{fill:#FFFFFF;}
</style>
<g id="g40">
	<g id="g36">
		<path id="path12" class="st0" d="M176.2,194.2H191v70.5c-7.6,1.4-13.1,2-19.2,2c-18.1,0-27.4-8.2-27.4-23.8
			c0-15.1,10-24.9,25.4-24.9c2.4,0,4.2,0.2,6.4,0.8V194.2z M176.2,230.8c-1.7-0.6-3.2-0.8-5-0.8c-7.5,0-11.8,4.6-11.8,12.7
			c0,7.9,4.1,12.2,11.7,12.2c1.6,0,3-0.1,5.1-0.4V230.8L176.2,230.8z"/>
		<path id="path14" class="st0" d="M219.3,219.2v34.3c0,11.8-0.9,17.5-3.5,22.4c-2.4,4.7-5.6,7.7-12.1,10.9l-13.7-6.5
			c6.5-3.1,9.7-5.8,11.7-9.9c2.1-4.2,2.8-9.1,2.8-22v-29.2H219.3L219.3,219.2z"/>
		<path id="path16" class="st0" d="M233.2,222.5c6.5-3.1,12.8-4.4,19.6-4.4c7.6,0,12.6,2,14.8,5.9c1.2,2.2,1.6,5.1,1.6,11.2v30
			c-6.6,1-15,1.6-21.1,1.6c-12.4,0-17.9-4.3-17.9-13.9c0-10.4,7.4-15.2,25.5-16.7v-3.3c0-2.7-1.3-3.6-5.1-3.6
			c-5.5,0-11.6,1.5-17.4,4.5V222.5L233.2,222.5z M256.3,246.1c-9.8,1-13,2.5-13,6.3c0,2.9,1.8,4.2,5.9,4.2c2.2,0,4.2-0.2,7.1-0.7
			V246.1z"/>
		<path id="path18" class="st0" d="M281.2,221.5c8.7-2.3,15.9-3.4,23.2-3.4c7.6,0,13.1,1.7,16.3,5.1c3.1,3.2,4,6.6,4,14v29h-14.8
			v-28.4c0-5.7-1.9-7.8-7.2-7.8c-2,0-3.8,0.2-6.8,1.1v35.1h-14.8L281.2,221.5L281.2,221.5z"/>
		<path id="path20" class="st0" d="M334.8,274.3c5.2,2.7,10.4,3.9,15.8,3.9c9.7,0,13.8-3.9,13.8-13.3v-0.3c-2.9,1.4-5.8,2-9.6,2
			c-13,0-21.2-8.5-21.2-22.1c0-16.8,12.2-26.3,33.8-26.3c6.3,0,12.2,0.7,19.3,2.1v11.6c-3.9-0.8-5.4-1.1-8.4-1.3v1.5l0.2,6.2
			l0.1,8.1c0.1,2,0.1,4,0.2,6v4c0,12.7-1.1,18.6-4.2,23.5c-4.6,7.2-12.6,10.8-23.9,10.8c-5.8,0-10.8-0.9-15.9-2.9L334.8,274.3
			L334.8,274.3z M364.2,230.1h-1.6c-2.9-0.1-6.2,0.7-8.5,2.1c-3.5,2-5.4,5.7-5.4,10.9c0,7.4,3.6,11.6,10.2,11.6c2,0,3.6-0.4,5.6-1
			v-5.1c0-1.7-0.1-3.6-0.1-5.7l-0.1-6.8l-0.1-4.9V230.1L364.2,230.1z"/>
		<path id="path22" class="st0" d="M415.9,217.9c14.8,0,23.8,9.3,23.8,24.4c0,15.5-9.4,25.1-24.4,25.1c-14.8,0-23.9-9.3-23.9-24.3
			C391.4,227.6,400.8,217.9,415.9,217.9L415.9,217.9z M415.6,255.6c5.7,0,9-4.7,9-12.9c0-8.1-3.3-12.9-8.9-12.9
			c-5.9,0-9.2,4.7-9.2,12.9C406.5,250.9,409.8,255.6,415.6,255.6z"/>
		<path id="path24" class="st0" d="M486.7,232.8c-3.4-2-6.3-2.9-10.3-2.9c-8.5,0-14.3,4.7-14.3,12.1c0,7.7,5.7,12.6,14.3,12.6
			c4,0,6.9-0.8,10.8-2.8v12c-4.8,2.4-8.7,3.4-14.5,3.4c-15.7,0-25.6-9.2-25.6-23.9c0-15.1,10.9-25.2,26.8-25.2
			c4.8,0,8.2,0.8,12.9,2.8L486.7,232.8L486.7,232.8z"/>
		<path id="path26" class="st0" d="M517.4,217.9c14.8,0,23.8,9.3,23.8,24.4c0,15.5-9.4,25.1-24.4,25.1c-14.8,0-23.9-9.3-23.9-24.3
			C493,227.6,502.4,217.9,517.4,217.9L517.4,217.9z M517.1,255.6c5.7,0,9-4.7,9-12.9c0-8.1-3.3-12.9-8.9-12.9
			c-5.9,0-9.2,4.7-9.2,12.9C508,250.9,511.4,255.6,517.1,255.6L517.1,255.6z"/>
		<path id="path28" class="st0" d="M551.3,221.5c8.7-2.3,15.9-3.4,23.2-3.4c7.6,0,13.1,1.7,16.3,5.1c3.1,3.2,4,6.6,4,14v29H580
			v-28.4c0-5.7-1.9-7.8-7.2-7.8c-2,0-3.8,0.2-6.8,1.1v35.1h-14.8L551.3,221.5L551.3,221.5z"/>
		<path id="path30" class="st0" d="M604,257.4h8.5v8.8H604V257.4z"/>
		<path id="path32" class="st0" d="M624.9,256.6c0.2,2.9,2.5,4.5,6.4,4.5c2.9,0,5.6-0.8,7.9-2.3v5.7c-2.8,1.5-5.8,2.2-8.9,2.2
			c-7.9,0-12.5-4.5-12.5-12.2c0-7.5,4.7-12.4,11.9-12.4c6.9,0,10.8,4.4,10.8,12v2.4L624.9,256.6L624.9,256.6z M633.6,251.4
			c-0.2-2.7-1.6-4.1-4-4.1c-2.5,0-4.2,1.6-4.6,4.1H633.6z"/>
		<path id="path34" class="st0" d="M652.8,242.7v13.5c0,3,0.9,4,3.8,4c1,0,2.1-0.1,3-0.3v-17.2h7.4v22.7l-0.9,0.1
			c-4,0.7-6.8,1-9.8,1c-4,0-6.7-0.8-8.5-2.4s-2.4-3.6-2.4-8v-13.4L652.8,242.7L652.8,242.7z"/>
	</g>
	<path id="rect38" class="st0" d="M204.5,194.2h14.8v15.2h-14.8V194.2z"/>
</g>
<path id="path54" class="st0" d="M233.2,194c4-1.6,7.8-3.3,10.2-4.6c5.4-2.8,7.4-5.1,7.4-7.9c0-2.6-2.1-4.1-5.4-4.1
	c-3.5,0-6.5,1.1-10.1,3.6v-8.9c3.8-2.4,7.5-3.4,12-3.4c8.5,0,13.9,4.6,13.9,11.9c0,6.4-3.8,10.4-13.1,13.9l16.8-0.7v8.5h-31.7
	L233.2,194L233.2,194z"/>
<path id="path56" class="st0" d="M287.4,168.9c9.7,0,16.2,6.7,16.2,16.9c0,10.6-6.7,17.5-16.9,17.5c-9.9,0-16.3-6.7-16.3-16.9
	C270.4,175.8,277.2,168.9,287.4,168.9L287.4,168.9z M286.8,195.1c4,0,6.4-3.4,6.4-8.9c0-5.6-2.3-9.1-6.1-9.1c-3.9,0-6.4,3.6-6.4,9
	C280.8,191.7,283.1,195.1,286.8,195.1z"/>
<path id="path58" class="st0" d="M309.5,194c4-1.6,7.8-3.3,10.2-4.6c5.4-2.8,7.4-5.1,7.4-7.9c0-2.6-2-4.1-5.4-4.1
	c-3.5,0-6.5,1.1-10.1,3.6v-8.9c3.8-2.4,7.5-3.4,12-3.4c8.5,0,13.9,4.6,13.9,11.9c0,6.4-3.8,10.4-13.1,13.9l16.8-0.7v8.5h-31.7
	L309.5,194L309.5,194z"/>
<path id="path58_1_" class="st0" d="M348.6,194c4-1.6,7.8-3.3,10.2-4.6c5.4-2.8,7.4-5.1,7.4-7.9c0-2.6-2-4.1-5.4-4.1
	c-3.5,0-6.5,1.1-10.1,3.6v-8.9c3.8-2.4,7.5-3.4,12-3.4c8.5,0,13.9,4.6,13.9,11.9c0,6.4-3.8,10.4-13.1,13.9l16.8-0.7v8.5h-31.7
	L348.6,194L348.6,194z"/>
<g>
	<path id="path22_2_" class="st0" d="M444,284.2c9.3,0,14.9,5.8,14.9,15.3c0,9.7-5.9,15.7-15.3,15.7c-9.3,0-14.9-5.8-14.9-15.2
		C428.7,290.2,434.6,284.2,444,284.2L444,284.2z M443.8,307.7c3.6,0,5.6-2.9,5.6-8.1c0-5.1-2.1-8.1-5.6-8.1c-3.7,0-5.8,2.9-5.8,8.1
		C438.1,304.8,440.2,307.7,443.8,307.7z"/>
	<path id="path22_1_" class="st0" d="M527.1,284.2c9.3,0,14.9,5.8,14.9,15.3c0,9.7-5.9,15.7-15.3,15.7c-9.3,0-14.9-5.8-14.9-15.2
		C511.8,290.2,517.6,284.2,527.1,284.2L527.1,284.2z M526.9,307.7c3.6,0,5.6-2.9,5.6-8.1c0-5.1-2.1-8.1-5.6-8.1
		c-3.7,0-5.8,2.9-5.8,8.1C521.2,304.8,523.3,307.7,526.9,307.7z"/>
	<path class="st0" d="M407.3,284.2c-6.9,0-12.7,1.2-12.7,1.2l0,44h9.3v-15.3c1.5,0.3,3.1,0.5,4.8,0.5c5.1,0,15-2.8,15-15.4
		C423.8,286.6,414.1,284.2,407.3,284.2z M406.9,307.2c-1.8,0-3-0.4-3-0.4v-14.9c0,0,0.9-0.3,3.1-0.3s7.5,0.3,7.5,7.7
		S408.7,307.2,406.9,307.2z"/>
	<path class="st0" d="M479.4,284c-6,0-14,2.8-14,2.8v27.6h9.3V293c1.5-0.7,3.2-1.1,5.1-1.1c2.2,0,3,0.2,3,0.2v-8
		C481.2,284.1,479.4,284,479.4,284z"/>
	<path class="st0" d="M508.3,292.2v-8.1h-6.5V277h-9v7.1h-5.2v8.1h4.9v15.5c0,0-0.1,6.9,10.2,6.9c0,0,2,0,4.9-0.5v-7
		c0,0-0.9,0.4-2.5,0.4s-3.3-0.8-3.3-2.7l-0.1-12.5h0.1H508.3z"/>
</g>
</svg>
