<svg xmlns="http://www.w3.org/2000/svg" width="527.581" height="62.846" viewBox="0 0 527.581 62.846">
  <g id="Grupo_90" data-name="Grupo 90" transform="translate(-6445.744 -4525.001)">
    <path id="Caminho_559" data-name="Caminho 559" d="M0,.839V59.765H16.515v-20.2H42.291V26.683H16.515V13.717H45.8V.839Z" transform="translate(6445.744 4525.912)" fill="#f2e7dc"/>
    <path id="Caminho_560" data-name="Caminho 560" d="M59.279.839H75.795V46.548h27.862V59.764H59.279Z" transform="translate(6508.206 4525.912)" fill="#f2e7dc"/>
    <path id="Caminho_561" data-name="Caminho 561" d="M83.679.839h16.515V46.548h27.862V59.764H83.679Z" transform="translate(6533.916 4525.912)" fill="#f2e7dc"/>
    <path id="Caminho_562" data-name="Caminho 562" d="M94.76,103.062l5.423-12.286a36.581,36.581,0,0,0,19.268,5.805c6.839,0,9.509-1.936,9.509-4.8,0-9.34-33.2-2.525-33.2-24.4,0-10.521,8.512-19.1,25.862-19.1,7.592,0,15.431,1.767,21.187,5.134l-5.087,12.37a34.272,34.272,0,0,0-16.184-4.543c-6.923,0-9.428,2.355-9.428,5.3,0,9,33.118,2.272,33.118,23.983,0,10.266-8.51,19.019-25.859,19.019-9.592,0-19.1-2.609-24.608-6.481" transform="translate(6828.098 4477.075)" fill="#f2e7dc"/>
    <path id="Caminho_563" data-name="Caminho 563" d="M138.337.275,167.1,61.469,197.123.275Z" transform="translate(6591.374 4525.299)" fill="#005e83"/>
    <path id="Caminho_564" data-name="Caminho 564" d="M155.128.275l28.767,61.195L213.913.275Z" transform="translate(6609.049 4525.299)" fill="#38b0c9"/>
    <path id="Caminho_565" data-name="Caminho 565" d="M122.446,62.333A30.946,30.946,0,0,0,133.052,60.1a29.85,29.85,0,0,0,9.738-6.421,29.433,29.433,0,0,0,6.5-9.836,32.5,32.5,0,0,0,2.349-12.472,32.415,32.415,0,0,0-2.349-12.51,29.054,29.054,0,0,0-6.5-9.762,30.1,30.1,0,0,0-9.738-6.385A30.9,30.9,0,0,0,122.446.473Z" transform="translate(6574.882 4525.514)" fill="#bda712"/>
    <path id="Caminho_566" data-name="Caminho 566" d="M136.265.473a30.909,30.909,0,0,0-10.608,2.236,30.087,30.087,0,0,0-9.736,6.385,29.059,29.059,0,0,0-6.506,9.762,32.445,32.445,0,0,0-2.347,12.51,32.522,32.522,0,0,0,2.347,12.47,29.426,29.426,0,0,0,6.506,9.838,29.842,29.842,0,0,0,9.736,6.421,31.007,31.007,0,0,0,10.608,2.236Z" transform="translate(6558.664 4525.514)" fill="#af0161"/>
    <path id="Caminho_567" data-name="Caminho 567" d="M33.048,4.93a30.971,30.971,0,0,0-5.892,9.006,29.666,29.666,0,0,0-2.367,11.309,28.974,28.974,0,0,0,2.28,11.418A31.8,31.8,0,0,0,34.1,46.994a31.631,31.631,0,0,0,10.358,7.06,28.6,28.6,0,0,0,11.365,2.23,29.958,29.958,0,0,0,11.284-2.392A31,31,0,0,0,76.117,48Z" transform="translate(6472.658 4530.887)" fill="#38b0c9"/>
    <path id="Caminho_568" data-name="Caminho 568" d="M72.786,51.33a30.914,30.914,0,0,0,5.892-9.006A29.918,29.918,0,0,0,81.071,31.04a28.587,28.587,0,0,0-2.228-11.365A31.67,31.67,0,0,0,71.781,9.317,31.783,31.783,0,0,0,61.45,2.281,28.964,28.964,0,0,0,50.035,0,29.677,29.677,0,0,0,38.723,2.369a30.984,30.984,0,0,0-9.006,5.892Z" transform="translate(6478.01 4525.001)" fill="#af0161"/>
    <path id="Caminho_569" data-name="Caminho 569" d="M98.758,93.212a41.029,41.029,0,0,0,1.27-10.677V48.691H84.923V80.443q0,2.556-.192,5.227a13.84,13.84,0,0,1-1.2,4.841,8.262,8.262,0,0,1-2,2.7Z" transform="translate(6813.728 4477.522)" fill="#d49702"/>
    <path id="Caminho_570" data-name="Caminho 570" d="M67.121,71.562a18.51,18.51,0,0,0,3.936,6.045q6.27,6.27,19.206,6.272t19.166-6.272a18.528,18.528,0,0,0,3.913-6.045Z" transform="translate(6798.088 4502.889)" fill="#38b0c9"/>
    <path id="Caminho_571" data-name="Caminho 571" d="M84.523,93.212a7.884,7.884,0,0,1-1.988-2.7,14.246,14.246,0,0,1-1.162-4.841q-.194-2.669-.194-5.227V48.691H66V82.535a40.839,40.839,0,0,0,1.274,10.677Z" transform="translate(6798.216 4477.522)" fill="#d49702"/>
  </g>
</svg>
