<svg id="Grupo_334" data-name="Grupo 334" xmlns="http://www.w3.org/2000/svg" xmlns:xlink="http://www.w3.org/1999/xlink" width="39.992" height="40" viewBox="0 0 39.992 40">
  <defs>
    <clipPath id="clip-path">
      <rect id="Retângulo_159" data-name="Retângulo 159" width="39.992" height="40" fill="#0a0a0a"/>
    </clipPath>
  </defs>
  <g id="Grupo_333" data-name="Grupo 333" clip-path="url(#clip-path)">
    <path id="Caminho_627" data-name="Caminho 627" d="M13.616,19.955c-.407-.764-.8-1.479-1.171-2.206a31.776,31.776,0,0,1-2.472-5.967,9.031,9.031,0,0,1,.014-4.741,1.168,1.168,0,1,1,2.28.511c-.077.448-.178.892-.232,1.343a8.293,8.293,0,0,0,.783,4.053,49.323,49.323,0,0,0,3.569,7.1c1.082,1.822,2.216,3.613,3.328,5.417.074.121.159.236.268.4.111-.15.206-.281.3-.409a1.165,1.165,0,0,1,1.954,1.268c-.408.664-.839,1.318-1.3,1.947a1.159,1.159,0,0,1-1.968-.1q-1.962-3.028-3.879-6.086c-.14-.221-.253-.332-.546-.287A24.449,24.449,0,0,0,5.6,25.11a8.311,8.311,0,0,0-2.417,2.07,3.312,3.312,0,0,0,0,4.4,9.831,9.831,0,0,0,3.609,2.728,26.019,26.019,0,0,0,8.214,2.327,38,38,0,0,0,7.361.248,32.736,32.736,0,0,0,8.077-1.456,2.392,2.392,0,0,1,.87-.153A1.134,1.134,0,0,1,32.33,36.3a1.121,1.121,0,0,1-.776,1.217c-1.079.332-2.16.678-3.262.912A39.138,39.138,0,0,1,11,38.274a21.184,21.184,0,0,1-7.359-3.1A9.28,9.28,0,0,1,.868,32.356a5.67,5.67,0,0,1,.707-6.93A14.112,14.112,0,0,1,6.964,21.8a29.063,29.063,0,0,1,6.4-1.793c.063-.011.124-.028.247-.054" transform="translate(0 0.678)" fill="#0a0a0a"/>
    <path id="Caminho_628" data-name="Caminho 628" d="M25.075,20.639a30.744,30.744,0,0,1,5.913,1.542,15.54,15.54,0,0,1,5.754,3.5,6.3,6.3,0,0,1,1.946,3.981,5.7,5.7,0,0,1-1.579,4.352,17.148,17.148,0,0,1-2.024,1.821,1.135,1.135,0,0,1-1.659-.212,1.2,1.2,0,0,1,.293-1.687,13.844,13.844,0,0,0,1.739-1.611,3.29,3.29,0,0,0,.018-4.519,9.514,9.514,0,0,0-3.212-2.493A25.159,25.159,0,0,0,24.7,22.957c-.116-.019-.232-.033-.347-.058a.631.631,0,0,0-.8.309,1.111,1.111,0,0,1-1.553.3,1.164,1.164,0,0,1-.366-1.609c.649-1.156,1.328-2.3,1.959-3.461a45.872,45.872,0,0,0,2.637-5.774,7.754,7.754,0,0,0-4.584-9.761A7.824,7.824,0,0,0,13.7,4.1a1.4,1.4,0,0,1-1.134.4,1.114,1.114,0,0,1-.931-.841,1.128,1.128,0,0,1,.392-1.228A10.1,10.1,0,0,1,17.341.084,10.344,10.344,0,0,1,28.363,6.61a9.79,9.79,0,0,1-.088,7.306,50.916,50.916,0,0,1-2.936,6.239c-.078.144-.158.289-.266.484" transform="translate(1.288 0)" fill="#0a0a0a"/>
    <path id="Caminho_629" data-name="Caminho 629" d="M23.347,9.818a4.858,4.858,0,1,1-4.832-4.9,4.882,4.882,0,0,1,4.832,4.9M21,9.8a2.512,2.512,0,1,0-2.494,2.521A2.522,2.522,0,0,0,21,9.8" transform="translate(1.515 0.547)" fill="#0a0a0a"/>
  </g>
</svg>
