<svg xmlns="http://www.w3.org/2000/svg" xmlns:xlink="http://www.w3.org/1999/xlink" width="52.303" height="32.645" viewBox="0 0 52.303 32.645">
  <defs>
    <clipPath id="clip-path">
      <rect id="Retângulo_158" data-name="Retângulo 158" width="52.303" height="32.645" fill="#0a0a0a"/>
    </clipPath>
  </defs>
  <g id="Grupo_332" data-name="Grupo 332" transform="translate(0 0)">
    <g id="Grupo_331" data-name="Grupo 331" transform="translate(0 0)" clip-path="url(#clip-path)">
      <path id="Caminho_625" data-name="Caminho 625" d="M43.36,21.331c-.977.855-1.937,1.687-2.89,2.532a.566.566,0,0,0-.171.329,3,3,0,0,1-3.068,3.02.685.685,0,0,0-.133.052,3.069,3.069,0,0,1-4.764,2.648c-.062.13-.128.257-.183.386a3.036,3.036,0,0,1-4.126,1.566.723.723,0,0,0-.5-.086,5.644,5.644,0,0,1-4.552-.1,20.5,20.5,0,0,1-5.766-3.641,67.754,67.754,0,0,1-8.049-8.184,1.665,1.665,0,0,0-1.2-.691,13.67,13.67,0,0,1-2.906-.781A17.335,17.335,0,0,1,.744,16.109c-.5-.356-.606-.607-.382-1.152Q2.3,10.232,4.258,5.516c.283-.681.94-.83,1.337-.34a.874.874,0,0,1,.026.989Q4.261,9.334,2.926,12.511c-.311.743-.592,1.5-.861,2.256a.5.5,0,0,0,.086.448A16.5,16.5,0,0,0,7.738,17.6a143.135,143.135,0,0,0,5.74-13.243,16.545,16.545,0,0,0-4.52-2.178c-1.263-.393-1.263-.384-1.85.807a1.965,1.965,0,0,1-.283.473.63.63,0,0,1-.9.125C5.721,3.407,5.5,3,5.577,2.8A15.836,15.836,0,0,1,6.7.5a.879.879,0,0,1,.75-.24A18.167,18.167,0,0,1,14.87,3.468a.926.926,0,0,0,.615.183,28.906,28.906,0,0,1,7.633-.2,1.052,1.052,0,0,0,.7-.17,6.314,6.314,0,0,1,5.968-.852,23.97,23.97,0,0,1,6.889,3.247l.435.289A18.763,18.763,0,0,1,43.65,2.847c1.626-.414,1.625-.425,2.364,1.08q3.193,6.513,5.725,13.309c.246.66.177.878-.39,1.277a18.629,18.629,0,0,1-6.821,2.994c-.683.149-.705.147-1.168-.177m-16.8,9.182c-.246-.193-.4-.293-.533-.421q-2.392-2.384-4.778-4.777c-.418-.42-.471-.86-.159-1.194.342-.365.772-.329,1.225.12.763.757,1.522,1.519,2.282,2.28q1.818,1.818,3.637,3.634a1.489,1.489,0,0,0,1.666.38,1.418,1.418,0,0,0,.955-1.253A1.631,1.631,0,0,0,30.27,27.9q-2.5-2.488-4.991-4.99a2.065,2.065,0,0,1-.334-.374.745.745,0,0,1,1.049-1.019,2.423,2.423,0,0,1,.371.34q3.173,3.171,6.346,6.343a3.6,3.6,0,0,0,.447.406,1.44,1.44,0,0,0,1.613.109,1.271,1.271,0,0,0,.758-1.359,2.435,2.435,0,0,0-.606-1.212c-2.316-2.365-4.668-4.7-7.009-7.036a4.179,4.179,0,0,1-.346-.365.692.692,0,0,1,.049-1,.7.7,0,0,1,1-.056,3.234,3.234,0,0,1,.329.312q3.493,3.491,6.987,6.984a3.831,3.831,0,0,0,.446.409,1.512,1.512,0,0,0,2.361-.868,1.619,1.619,0,0,0-.553-1.583Q32.707,17.479,27.248,12c-.266-.268-.486-.326-.772-.1-1.005.781-2.036,1.531-3,2.361a3.635,3.635,0,0,1-5.695-4.385,16.088,16.088,0,0,1,2.595-3.7c.4-.418.823-.81,1.3-1.274-.266-.031-.414-.058-.562-.064a28.523,28.523,0,0,0-5.821.394.877.877,0,0,0-.791.686,11.84,11.84,0,0,1-.485,1.269q-2.219,5.07-4.45,10.136c-.1.231-.219.417,0,.679a67.55,67.55,0,0,0,9.251,9.393,16.819,16.819,0,0,0,4.945,2.963,4.275,4.275,0,0,0,2.8.164m13.351-7.988c.791-.825,1.564-1.637,2.343-2.441a.647.647,0,0,0,.106-.845c-.757-1.591-1.482-3.2-2.21-4.8-.277-.611-.539-1.229-.792-1.85a.76.76,0,1,1,1.376-.615c.058.12.1.246.16.368,1.1,2.41,2.212,4.817,3.3,7.235a.458.458,0,0,0,.649.307,18.193,18.193,0,0,0,4.969-2.152c.319-.2.384-.37.236-.719-1.183-2.813-2.328-5.643-3.529-8.45-.626-1.46-1.344-2.883-2.031-4.349A16.711,16.711,0,0,0,38.66,6.727c.064.174.113.314.166.452.234.611.477,1.219.7,1.834a.762.762,0,1,1-1.4.562.738.738,0,0,1-.057-.14A3.035,3.035,0,0,0,36.494,7.4c-.1-.057-.192-.137-.288-.2a20.918,20.918,0,0,0-7.541-3.466,4.14,4.14,0,0,0-3.548.541c-.4.3-.856.533-1.263.826a15.109,15.109,0,0,0-4.772,5.569,2.113,2.113,0,0,0,3.447,2.383,13.565,13.565,0,0,1,3.854-2.8c.789-.35.941-.312,1.55.3L39.909,22.526" transform="translate(0.09 0.09)" fill="#0a0a0a"/>
      <path id="Caminho_626" data-name="Caminho 626" d="M43.36,21.331c-.977.855-1.937,1.687-2.89,2.532a.566.566,0,0,0-.171.329,3,3,0,0,1-3.068,3.02.685.685,0,0,0-.133.052,3.069,3.069,0,0,1-4.764,2.648c-.062.13-.128.257-.183.386a3.036,3.036,0,0,1-4.126,1.566.723.723,0,0,0-.5-.086,5.644,5.644,0,0,1-4.552-.1,20.5,20.5,0,0,1-5.766-3.641,67.754,67.754,0,0,1-8.049-8.184,1.665,1.665,0,0,0-1.2-.691,13.67,13.67,0,0,1-2.906-.781A17.335,17.335,0,0,1,.744,16.109c-.5-.356-.606-.607-.382-1.152Q2.3,10.232,4.258,5.516c.283-.681.94-.83,1.337-.34a.874.874,0,0,1,.026.989Q4.261,9.334,2.926,12.511c-.311.743-.592,1.5-.861,2.256a.5.5,0,0,0,.086.448A16.5,16.5,0,0,0,7.738,17.6a143.135,143.135,0,0,0,5.74-13.243,16.545,16.545,0,0,0-4.52-2.178c-1.263-.393-1.263-.384-1.85.807a1.965,1.965,0,0,1-.283.473.63.63,0,0,1-.9.125C5.721,3.407,5.5,3,5.577,2.8A15.836,15.836,0,0,1,6.7.5a.879.879,0,0,1,.75-.24A18.167,18.167,0,0,1,14.87,3.468a.926.926,0,0,0,.615.183,28.906,28.906,0,0,1,7.633-.2,1.052,1.052,0,0,0,.7-.17,6.314,6.314,0,0,1,5.968-.852,23.97,23.97,0,0,1,6.889,3.247l.435.289A18.763,18.763,0,0,1,43.65,2.847c1.626-.414,1.625-.425,2.364,1.08q3.193,6.513,5.725,13.309c.246.66.177.878-.39,1.277a18.629,18.629,0,0,1-6.821,2.994C43.845,21.657,43.823,21.655,43.36,21.331Zm-16.8,9.182c-.246-.193-.4-.293-.533-.421q-2.392-2.384-4.778-4.777c-.418-.42-.471-.86-.159-1.194.342-.365.772-.329,1.225.12.763.757,1.522,1.519,2.282,2.28q1.818,1.818,3.637,3.634a1.489,1.489,0,0,0,1.666.38,1.418,1.418,0,0,0,.955-1.253A1.631,1.631,0,0,0,30.27,27.9q-2.5-2.488-4.991-4.99a2.065,2.065,0,0,1-.334-.374.745.745,0,0,1,1.049-1.019,2.423,2.423,0,0,1,.371.34q3.173,3.171,6.346,6.343a3.6,3.6,0,0,0,.447.406,1.44,1.44,0,0,0,1.613.109,1.271,1.271,0,0,0,.758-1.359,2.435,2.435,0,0,0-.606-1.212c-2.316-2.365-4.668-4.7-7.009-7.036a4.179,4.179,0,0,1-.346-.365.692.692,0,0,1,.049-1,.7.7,0,0,1,1-.056,3.234,3.234,0,0,1,.329.312q3.493,3.491,6.987,6.984a3.831,3.831,0,0,0,.446.409,1.512,1.512,0,0,0,2.361-.868,1.619,1.619,0,0,0-.553-1.583Q32.707,17.479,27.248,12c-.266-.268-.486-.326-.772-.1-1.005.781-2.036,1.531-3,2.361a3.635,3.635,0,0,1-5.695-4.385,16.088,16.088,0,0,1,2.595-3.7c.4-.418.823-.81,1.3-1.274-.266-.031-.414-.058-.562-.064a28.523,28.523,0,0,0-5.821.394.877.877,0,0,0-.791.686,11.84,11.84,0,0,1-.485,1.269q-2.219,5.07-4.45,10.136c-.1.231-.219.417,0,.679a67.55,67.55,0,0,0,9.251,9.393,16.819,16.819,0,0,0,4.945,2.963A4.275,4.275,0,0,0,26.557,30.514Zm13.351-7.988c.791-.825,1.564-1.637,2.343-2.441a.647.647,0,0,0,.106-.845c-.757-1.591-1.482-3.2-2.21-4.8-.277-.611-.539-1.229-.792-1.85a.76.76,0,1,1,1.376-.615c.058.12.1.246.16.368,1.1,2.41,2.212,4.817,3.3,7.235a.458.458,0,0,0,.649.307,18.193,18.193,0,0,0,4.969-2.152c.319-.2.384-.37.236-.719-1.183-2.813-2.328-5.643-3.529-8.45-.626-1.46-1.344-2.883-2.031-4.349A16.711,16.711,0,0,0,38.66,6.727c.064.174.113.314.166.452.234.611.477,1.219.7,1.834a.762.762,0,1,1-1.4.562.738.738,0,0,1-.057-.14A3.035,3.035,0,0,0,36.494,7.4c-.1-.057-.192-.137-.288-.2a20.918,20.918,0,0,0-7.541-3.466,4.14,4.14,0,0,0-3.548.541c-.4.3-.856.533-1.263.826a15.109,15.109,0,0,0-4.772,5.569,2.113,2.113,0,0,0,3.447,2.383,13.565,13.565,0,0,1,3.854-2.8c.789-.35.941-.312,1.55.3Z" transform="translate(0.09 0.09)" fill="#0a0a0a"/>
    </g>
  </g>
</svg>
