<?xml version="1.0" encoding="UTF-8"?>
<svg xmlns:xodm="http://www.corel.com/coreldraw/odm/2003" xmlns="http://www.w3.org/2000/svg" xmlns:xlink="http://www.w3.org/1999/xlink" version="1.1" id="Layer_1" x="0px" y="0px" viewBox="0 0 2500 393" style="enable-background:new 0 0 2500 393;" xml:space="preserve">
<style type="text/css">
	.st0{fill:#5741D9;}
</style>
<g id="Layer_x0020_1">
	<path id="_230da8ffff_1_" class="st0" d="M234.7,0.5c43.3-2.9,87.4,5.8,126.2,25.4c57.5,28.3,103.3,79.1,124.5,139.1   c9.6,26.7,14.6,54.5,14.6,82.9v104.5c0,4.2,0,8.7-0.8,12.9c-2.5,10.4-10,20-20,24.6c-7.1,3.3-15,3.7-22.1,2.5   c-15.8-2.9-28.3-17.9-28.3-34.1c0-32.5,0-65,0-97.4c0.4-9.2,0.4-19.2-4.6-27.1c-7.9-15-27.9-22.1-43.3-15.8   c-13.3,4.6-22.9,18.3-23.3,32.5c0,32.9,0,65.8,0,98.7c0,6.2,0.4,12.5-1.7,18.3c-3.3,11.7-12.9,20.8-24.6,24.1   c-15.4,4.2-32.9-2.5-40.4-16.7c-5.4-8.3-5-18.7-4.6-28.3c0-32.9,0-65.4,0-98.3c-0.4-16.7-14.2-31.6-30.4-33.7   c-10.8-1.7-22.1,2.1-30,9.6c-7.1,6.7-10.8,16.2-10.8,25.8v95.4c0,7.9,0.8,16.2-2.1,23.7c-4.6,13.7-18.3,23.7-32.9,23.3   c-15,0.8-29.6-9.6-34.1-23.3c-2.5-7.1-2.1-14.2-2.1-21.7c0-32.9,0-65.8,0-98.7c0-16.2-12.9-31.2-28.7-34.1   c-14.6-2.9-30.4,4.2-37.9,17.5c-2.9,5.4-4.6,11.7-4.6,17.9v107c0,10.4-4.6,20.8-12.5,27.5c-12.1,10.4-31.6,11.2-44.1,1.7   C6.9,379.9,1.5,369,1.5,357.8V249.5c0-40.8,10.4-81.6,30-117.8c15.8-29.6,37.9-55.8,64.1-76.6C134.4,22.6,183.9,3.5,234.7,0.5   L234.7,0.5L234.7,0.5z"></path>
	<path class="st0" d="M1207.7,125.9h-54.1c2.1-37.9,10-72,44.6-93.7c34.6-21.2,72.4-26.2,112-22.9c21.2,1.7,42.5,6.2,62,15.4   c34.6,15.8,51.6,42.9,51.6,80.8c0,67,0,134.1,0,201.1c0,24.6,5,29.1,29.6,26.6c2.5-0.4,5.4-0.8,7.9-1.2c0.4,1.2,0.4,2.5,0.4,3.3   v40.8c-19.6,6.7-39.6,8.7-59.1,3.3c-14.6-4.2-23.7-14.6-28.7-28.3c-2.5-7.1-4.2-14.6-6.2-22.5c-2.1,2.5-3.7,4.6-5.8,6.7   c-42.9,43.3-93.7,61.6-153.6,46.2c-42.5-10.8-71.6-49.5-72.9-93.7c-0.4-14.2,0.8-28.3,4.2-42.1c7.9-31.6,30.4-50.8,58.7-63.7   c20-9.2,41.6-11.7,63.3-14.6c25.4-3.3,50.4-6.2,75.8-10c17.1-2.5,25.8-11.7,28.3-28.7c5.4-34.6-10-57.5-43.3-65.8   c-20-5-40.4-5.8-60.8-2.1c-30,5.4-46.6,22.5-52.5,52C1209.4,117.1,1208.6,121.3,1207.7,125.9L1207.7,125.9L1207.7,125.9z    M1367.2,192.5c-25,13.3-49.1,16.7-73.7,20.4c-20.4,3.3-41.2,6.3-61.2,12.5c-26.2,8.7-38.3,30.4-35.8,59.5   c2.1,24.1,18.3,43.7,44.6,47.9c40.4,6.7,76.2-4.6,104.5-34.6c8.3-8.7,15-21.2,16.7-32.9C1366,242,1365.5,218.3,1367.2,192.5   L1367.2,192.5z M2138.7,262.4c-1.2,5.8-2.1,10.8-3.3,15.4c-23.3,71.2-70.8,101.6-128.2,108.3c-99.5,10.8-156.5-54.1-171.1-123.2   c-11.7-55-10-109.5,14.2-161.1c22.9-48.7,59.5-80.8,114.1-90.3c65.4-11.7,157.8,20.8,173.2,122.8c4.2,26.2,5,53.3,7.5,80.8h-253.1   c2.1,37.5,7.9,72.4,35.4,99.5c11.2,11.2,25.8,16.7,41.6,19.6c51.2,9.2,93.7-15.4,110.3-65c1.7-5.4,4.2-7.1,9.6-6.7   C2105,262.4,2121.2,262.4,2138.7,262.4L2138.7,262.4L2138.7,262.4z M1893.9,166.7h189.4c-2.1-22.1-5.8-42.5-16.2-61.6   c-10-18.3-24.6-31.6-44.6-38.3C1957.2,44.3,1889.7,96.3,1893.9,166.7L1893.9,166.7z M2274.9,374h-57.5V16.8h54.5v50   c4.2-4.6,6.7-7.5,9.2-10.4c39.1-44.6,88.3-56.2,144.1-42.5c38.7,9.6,60.4,37.1,67.9,75.4c2.9,15.8,5,32.1,5,47.9   c0.4,76.6,0.4,153.2,0.4,229.8c0,2.1-0.4,4.2-0.4,6.7h-58.7V364c0-71.6,0.4-143.2-0.4-214.8c0-15.8-2.5-32.1-7.1-47.5   c-7.5-25-27.5-38.3-53.7-39.6c-47.9-1.7-85.8,23.7-97.4,66.2c-4.2,15.4-5.4,31.6-5.4,47.9c-0.4,62.9-0.4,125.3-0.4,187.4V374   L2274.9,374L2274.9,374z M1517.5,16.8h55.4v151.6c3.3-3.3,5.4-5,7.5-7.1c45.4-46.2,90.8-92.9,136.2-139.1c3.7-4.2,7.5-5.8,13.3-5.8   c21.2,0.4,42.9,0,66.2,0c-3.3,3.3-5,5.4-7.1,7.5c-40,40-79.5,80.4-119.9,119.9c-4.6,4.6-4.6,7.5-1.7,12.5   c43.7,69.5,87,139.1,130.3,208.6c1.7,2.5,2.9,5,5,8.7c-2.9,0.4-5,0.4-7.5,0.4c-20,0-39.6,0-59.5,0c-5.4,0-7.9-2.1-10.8-6.2   c-33.3-55.8-66.6-111.6-99.9-167.8c-1.7-2.5-2.9-5-5-7.9c-15.4,15.4-30.4,30-45.4,45.4c-2.1,2.1-2.5,5.8-2.5,8.7   c0,39.1,0,78.3,0,117.4v10c-10.8,0-21.7,0-32.1,0c-7.5,0-17.9,2.1-22.1-2.1c-3.7-3.3-1.7-14.2-1.7-21.7V26.4   C1517.5,24.3,1517.5,21,1517.5,16.8z M878.4,16.4c-45,44.6-88.7,88.3-132.8,132C793,224.1,839.3,298.2,886.3,374   c-3.7,0-6.2,0.4-8.7,0.4c-19.1,0-38.7,0-57.9,0c-5.4,0-8.7-2.1-11.7-6.7C774.7,312,741.4,256.2,708.1,200c-1.2-2.5-2.9-4.6-5-7.9   c-8.3,8.7-15.8,18.3-25,25c-18.7,14.2-24.1,31.6-22.9,55c2.1,30.4,0.4,61.2,0.4,91.6v10h-55V16.8h55v149.1c1.2,0.8,2.5,1.7,3.3,2.5   c1.7-2.5,2.5-5.4,4.2-7.5c45-46.2,90.4-92,135.3-138.6c4.2-4.2,7.9-6.2,14.2-5.8c18.7,0.4,37.5,0,56.2,0   C871.7,16.4,874.2,16.4,878.4,16.4L878.4,16.4L878.4,16.4z M988.3,75.9c27.9-40.8,57.5-74.9,112.4-65v61.2   c-14.6,0.8-29.2,0.4-42.9,3.3c-33.7,7.1-60,37.9-65.4,75.4c-0.8,7.5-1.7,15-1.7,22.5c0,63.7,0,127.4,0,191.1v10h-56.6V17.6h54.1   C988.3,36.4,988.3,55.1,988.3,75.9L988.3,75.9z"></path>
</g>
</svg>
