<?xml version="1.0" encoding="UTF-8"?>
<svg xmlns:xodm="http://www.corel.com/coreldraw/odm/2003" xmlns="http://www.w3.org/2000/svg" xmlns:xlink="http://www.w3.org/1999/xlink" version="1.1" id="Layer_1" x="0px" y="0px" viewBox="0 0 2500 2500" style="enable-background:new 0 0 2500 2500;" xml:space="preserve">
<style type="text/css">
	.st0{fill:none;}
	.st1{fill:#5741D9;}
</style>
<g id="Layer_x0020_1">
	<rect y="0" class="st0" width="2500" height="2500"></rect>
	<path id="_230da8ffff_1_" class="st1" d="M1169.6,267.1c217.2-14.6,438.6,29.2,632.8,127.4c288.2,142,518,396.8,624.5,697.6   c48,133.7,73.1,273.6,73.1,415.6v524.2c0,20.9,0,43.9-4.2,64.8c-12.5,52.2-50.1,100.2-100.2,123.2c-35.5,16.7-75.2,18.8-110.7,12.5   c-79.4-14.6-142-89.8-142-171.3c0-162.9,0-325.8,0-488.7c2.1-45.9,2.1-96.1-23-135.8c-39.7-75.2-139.9-110.7-217.2-79.4   c-66.8,23-114.9,91.9-117,162.9c0,165,0,330,0,495c0,31.3,2.1,62.7-8.4,91.9c-16.7,58.5-64.7,104.4-123.2,121.1   c-77.3,20.9-165-12.5-202.6-83.5c-27.2-41.8-25.1-94-23-142c0-165,0-327.9,0-492.9c-2.1-83.5-71-158.7-152.5-169.2   c-54.3-8.4-110.7,10.4-150.4,48c-35.5,33.4-54.3,81.4-54.3,129.5v478.3c0,39.7,4.2,81.4-10.4,119.1c-23,68.9-91.9,119.1-165,117   c-75.2,4.2-148.3-48-171.3-117c-12.5-35.5-10.4-71-10.4-108.6c0-165,0-330,0-495c0-81.4-64.8-156.6-144.1-171.3   c-73.1-14.6-152.5,20.9-190.1,87.7c-14.6,27.1-23,58.5-23,89.8v536.8c0,52.2-23,104.4-62.7,137.9c-60.6,52.2-158.7,56.4-221.4,8.4   c-46-31.3-73.1-85.6-73.1-142v-543c0-204.7,52.2-409.4,150.4-591.1C229.7,776.7,340.4,645.1,472,540.7   C666.3,377.8,914.8,281.7,1169.6,267.1L1169.6,267.1L1169.6,267.1z"></path>
</g>
</svg>
