<?xml version="1.0" encoding="utf-8"?>
<!-- Generator: Adobe Illustrator 28.3.0, SVG Export Plug-In . SVG Version: 6.00 Build 0)  -->
<svg version="1.1" id="Layer_1" xmlns="http://www.w3.org/2000/svg" xmlns:xlink="http://www.w3.org/1999/xlink" x="0px" y="0px"
	 viewBox="0 0 1094.6 300" style="enable-background:new 0 0 1094.6 300;" xml:space="preserve">
<style type="text/css">
	.st0{fill-rule:evenodd;clip-rule:evenodd;fill:#F050F8;}
	.st1{opacity:1.000000e-02;enable-background:new    ;}
	.st2{fill:#FFFFFF;}
	.st3{fill-rule:evenodd;clip-rule:evenodd;fill:#180048;}
	.st4{fill:#C52AD1;}
	.st5{fill:#9A0C9F;}
	.st6{fill:#180048;}
</style>
<path class="st0" d="M253.6,110.5c11.2-3.2,19.8-12.9,21.5-22.7c2.6-14.8,0.2-30.7-13.6-43.1c-9.2-8.1-25.8-13.5-40.1-12.9
	c-10,0.3-23.4,3.9-32.7,11.1c-14.2-6-29.7-9.3-46.1-9.3C80.5,33.6,29.6,81.4,24.8,142c-0.2,3-0.4,5.9-0.4,9v0.4
	c0,65,52.9,117.7,118.2,117.7c65.3,0,118.2-52.7,118.2-117.7C260.9,137,258.3,123.2,253.6,110.5L253.6,110.5z M239.6,199.6
	c-0.3-34-13.5-55-28.7-77.9c-14.1-21.2-12.3-44.7-5.2-54.7c0.5-0.6,1.1-1.3,1.9-2c13.7,10.2,24.9,23.6,32.4,39
	c-4.9-0.8-9.7-3.1-13.1-6.3c0,0-8.1-5.6-5.1,0.2c3.1,6.2,7.3,10,16.4,12.6c1.8,0.5,3.5,0.8,5.2,1c4.9,12.3,7.6,25.8,7.6,39.8
	C251,168.7,246.9,185.1,239.6,199.6L239.6,199.6z M250.3,102.6c5.1-2.3,8-6,10.1-10.4c2.3-5.2,4.1-12.6-1.9-23.1
	c-4.4-7.9-14.2-14.8-24.4-14.9c-7.1-0.1-13.4,2.1-18.2,4.7C230.6,70.5,242.5,85.5,250.3,102.6z M181,50.4c-11.9-4.5-24.9-7-38.4-7
	c-3.5,0-7,0.2-10.4,0.5c22.1,40.8,35,90.8,35,144.7c0,10.4-0.5,20.6-1.4,30.6c5.1-3.5,9.5-7.1,11.7-10c3.5-4.5,5.3-8.9,7.2-17.2
	c2.8-12.8,1.4-23.8-5.3-44.8c-4.9-15.3-9.1-34-10.6-48.1c-0.8-7.8-0.2-18.3,2-25.8C172.4,68,175.3,57.9,181,50.4L181,50.4z"/>
<path class="st1" d="M155.4,258.5c1.4-12.6,2.1-25.4,2.1-38.5c0-65.8-17.8-125.8-47.2-171.6c-44,13.7-75.9,54.6-75.9,103
	c0,59.6,48.5,107.9,108.3,107.9C147,259.2,151.2,258.9,155.4,258.5L155.4,258.5z"/>
<path class="st2" d="M70.5,204.1c2.8,7.6,8.8,13.9,17,16.9c14.8,5.3,31.1-2.2,36.5-16.9c2.4-6.5,2.2-13.3,0-19.3L70.5,204.1z"/>
<path class="st3" d="M80.5,200.5c2.3,4.2,6.1,7.7,11.1,9.5c10.7,3.9,22.5-1.6,26.4-12.3c1.3-3.7,1.6-7.5,0.8-11.1L80.5,200.5z
	 M110.7,202.6c-1.1,3-4.5,4.6-7.5,3.5c-3.1-1.1-4.6-4.5-3.5-7.5c1.1-3,4.5-4.6,7.5-3.5C110.3,196.2,111.8,199.6,110.7,202.6z"/>
<path class="st4" d="M162.6,244.1c5-3,10.3-6.6,15.9-11.1c22-22.4,23.2-42.2,19.6-64.1c-1.7-11-8.7-33-12.6-39.6
	c-0.3-0.5-6.2-16.1-6.2-16.1c-10.3-31.7-2.9-65.9,26.4-78.8C206,34.4,153.7,48,166,99c3.3,13.8,8.5,32.7,13.5,48.1
	c6.7,21,8.1,32,5.3,44.8c-1.9,8.4-3.7,12.7-7.2,17.2c-2.8,3.7-7.1,7.2-11.7,10.4C165.1,227.8,164,236,162.6,244.1L162.6,244.1z"/>
<path class="st4" d="M221.3,95.5c0.6,0.6,1.2,1.2,2,1.8c6.6,5.6,15.5,10.8,25.8,8.9c6.9-1.3,16.8-9.3,16.8-23.6
	c0-20-15.7-34.3-32.9-34.3c-16.3,0-29.7,11.5-31,27.4c0.8-3.4,2-6.3,3.8-8.8c0.5-0.6,1.1-1.3,1.9-2c0,0,0-0.3,4-3.3
	c2.5-1.8,4.3-2.7,4.3-2.7c4.9-2.7,11.1-4.8,18.2-4.7c10.2,0.1,20.1,7,24.4,14.9c6,10.4,4.2,17.9,1.9,23.1
	c-2.2,4.4-5.1,8.1-10.1,10.4c0,0-1.2,0.6-5.1,1.1c-4,0.5-5.1,0.2-5.1,0.2c-4.9-0.8-9.7-3.1-13.1-6.3
	C226.9,97.7,222.2,94.4,221.3,95.5L221.3,95.5z"/>
<path class="st5" d="M184.7,195.8c0.7,0.9,1.4,1.8,2,2.7c3.8,5.8,7.2,15.1,0.3,19.7c-4.1,2.7-10.2,1.7-13.9-1.9
	c-3.6-3.6-4.7-9.4-2.9-14c1.4-3.7,4.9-7.9,9-8.8C181.3,193,183.2,194.1,184.7,195.8L184.7,195.8z"/>
<path class="st6" d="M172.8,205.9c0.4-2.3,1.3-4.5,2.7-6.4c1-1.4,2.6-2.9,4.3-2.4c1.3,0.3,2.1,1.5,2.6,2.7c1.8,4.5-0.6,10.1-4.9,12
	c-1.5,0.7-3.2,0.9-4.1-1C172.8,209.3,172.6,207.6,172.8,205.9L172.8,205.9z"/>
<path class="st5" d="M184.5,162.6c1,0.4,1.9,0.9,2.8,1.5c5.7,3.3,12.7,9.7,8.9,16.6c-2.3,4.1-8,5.9-12.6,4.4
	c-4.7-1.5-8.1-5.9-8.6-10.6c-0.4-3.8,0.7-8.8,3.8-11.4C180.4,161.6,182.6,161.8,184.5,162.6z"/>
<path class="st6" d="M180.3,177.8c-1-2.3-1.5-4.7-1.4-7.2c0-1.9,0.5-4,2.3-4.7c1.2-0.5,2.7,0.1,3.9,0.9c4.3,2.9,5.4,9.2,2.9,13.3
	c-1,1.5-2.4,2.7-4.2,1.6C182.2,180.9,181.1,179.2,180.3,177.8L180.3,177.8z"/>
<path class="st5" d="M178.4,134.8c0.9,0.4,1.7,0.7,2.6,1.2c5.1,2.7,11.4,8.1,8.1,14.2c-1.9,3.7-6.8,5.4-11,4.2c-4.1-1.2-7.3-5-7.8-9
	c-0.4-3.3,0.4-7.8,3.1-10C174.9,134.1,176.7,134.2,178.4,134.8L178.4,134.8z"/>
<path class="st6" d="M175.3,148c-0.9-1.8-1.4-3.8-1.3-5.7c0-1.5,0.3-3.2,1.8-3.9c1.1-0.4,2.2,0,3.1,0.6c3.5,2.2,4.6,7.3,2.6,10.7
	c-0.8,1.3-1.9,2.2-3.3,1.4C176.9,150.5,176,149.2,175.3,148L175.3,148z"/>
<path class="st5" d="M171.7,110.2c0.7,0.4,1.4,0.8,2,1.3c4.1,3,8.7,8.4,5.1,13.1c-2.1,2.9-6.6,3.8-10,2.3c-3.4-1.5-5.5-5.1-5.5-8.7
	c0.1-2.8,1.4-6.6,4-8.2C168.7,109.1,170.3,109.5,171.7,110.2z"/>
<path class="st6" d="M167.3,121.1c-0.6-1.6-0.6-3.3-0.3-5c0.2-1.2,0.7-2.7,2-3c0.9-0.2,1.9,0.3,2.6,0.9c2.7,2.3,2.9,6.7,0.8,9.3
	c-0.8,0.9-1.9,1.7-3,0.8C168.4,123.2,167.7,122.2,167.3,121.1L167.3,121.1z"/>
<path class="st5" d="M169.4,86c0.5,0.5,1,1.1,1.5,1.7c2.8,3.8,5.6,9.9,0.9,13.2c-2.8,2-7.1,1.7-9.8-0.6c-2.7-2.3-3.6-6.1-2.5-9.3
	c0.9-2.6,3.2-5.6,6-6.4C166.9,84.2,168.3,85,169.4,86z"/>
<path class="st6" d="M161.6,94.4c0-1.7,0.4-3.5,1.2-5c0.6-1.2,1.6-2.5,3-2.4c0.5,0.1,1,0.3,1.4,0.5c0.4,0.3,0.7,0.6,1,1
	c1.9,3,0.8,7.4-2.2,9.4c-1.1,0.7-2.4,1.1-3.2-0.1C161.9,96.9,161.6,95.6,161.6,94.4z"/>
<path class="st5" d="M174.3,63.9c0.3,0.6,0.6,1.3,0.8,2c1.4,4.2,2.1,10.4-3.2,12.2c-3.2,1-7-0.4-8.8-3.2c-1.8-2.8-1.5-6.5,0.5-9.1
	c1.6-2.1,4.6-4.2,7.4-4.1C172.5,61.7,173.6,62.7,174.3,63.9L174.3,63.9z"/>
<path class="st6" d="M164.6,68.8c0.5-1.5,1.4-2.9,2.5-4.1c0.9-0.9,2.1-1.7,3.3-1.3c0.4,0.2,0.8,0.5,1.1,0.8c0.3,0.4,0.5,0.8,0.5,1.2
	c0.9,3.1-1.5,6.7-4.6,7.7c-1.2,0.4-2.4,0.3-2.8-0.9C164.2,71.1,164.4,69.8,164.6,68.8z"/>
<path class="st5" d="M184.8,46.1c0.1,0.6,0.1,1.2,0,1.8c-0.2,3.7-1.7,8.9-6.5,8.8c-2.9-0.1-5.5-2.3-6-5c-0.5-2.7,0.9-5.6,3.4-7.1
	c1.9-1.2,5-2,7.3-1.2C184.2,43.8,184.7,44.9,184.8,46.1L184.8,46.1z"/>
<path class="st6" d="M175.6,47.4c0.8-1,1.9-1.8,3.1-2.3c0.9-0.4,2.1-0.7,2.8-0.1c0.5,0.4,0.6,1.2,0.6,1.9c-0.3,2.6-3.1,4.5-5.7,4.4
	c-0.9,0-1.9-0.4-1.8-1.4C174.6,48.9,175,48.1,175.6,47.4L175.6,47.4z"/>
<path class="st5" d="M200.3,34.7c-0.1,0.5-0.3,0.9-0.5,1.4c-1.1,2.9-6.2,5.5-7.4,5.3c-2.3-0.5-3.7-3.2-3.4-5.4
	c0.2-1.1,0.7-2.2,1.5-3c0.8-0.8,1.8-1.4,3-1.7c1.8-0.5,4.5-0.4,6,0.9C200.4,32.8,200.5,33.8,200.3,34.7L200.3,34.7z"/>
<path class="st6" d="M192.3,33.1c0.8-0.5,1.8-0.9,2.9-1.1c0.8-0.2,1.8-0.3,2.3,0.1c0.4,0.3,0.3,0.7,0.1,1c-0.7,1.3-3.3,2.2-5.4,2.1
	c-0.8-0.1-1.5-0.3-1.2-0.8C191.2,33.9,191.7,33.5,192.3,33.1L192.3,33.1z"/>
<g>
	<path class="st6" d="M323.7,96.5h38.8V140l33-43.4h45.1l-40.5,50.4l41.3,65.7h-46.3l-22.7-36.8l-9.9,12.1v24.7h-38.8V96.5z"/>
	<path class="st6" d="M500.4,151.7c4.6,0,8.3-1,10.9-3c2.7-2,4-4.8,4-8.3v-0.3c0-3.8-1.3-6.5-4-8.3c-2.7-1.9-6.2-2.8-10.8-2.8h-16.9
		v22.7H500.4z M444.9,96.5h56.7c10.4,0,18.9,1.2,25.5,3.6c6.7,2.3,12.2,5.5,16.2,9.6c3.5,3.5,6.2,7.5,8,11.9
		c1.8,4.4,2.7,9.6,2.7,15.6v0.3c0,8.5-2,15.7-6.1,21.6c-4.1,5.9-9.7,10.5-16.7,13.9l27,39.5h-44.3l-21.9-33.2h-8.3v33.2h-38.8
		L444.9,96.5z"/>
	<path class="st6" d="M633.3,169.9l-10.6-28.2l-10.6,28.2H633.3z M603.8,96.1h38.5L691.2,213h-42.1l-6.1-15.6h-40.6l-6,15.6h-41.4
		L603.8,96.1z"/>
	<path class="st6" d="M696,96.5h38.8V140l33-43.4h45.1l-40.5,50.4l41.3,65.7h-46.3l-22.7-36.8l-9.9,12.1v24.7H696L696,96.5z"/>
	<path class="st6" d="M817.1,96.5h99v31.8h-60.8v11.8h56.7v28h-56.7v12.6h61.7v31.8h-99.8V96.5z"/>
	<path class="st6" d="M927.3,96.5h36.3l41.3,51.2V96.5h38.5v116.1h-34.5L965.8,159v53.6h-38.5L927.3,96.5z"/>
</g>
</svg>
