<svg xmlns="http://www.w3.org/2000/svg" width="48.743" height="34.341" viewBox="0 0 48.743 34.341">
  <path id="Path_103" data-name="Path 103" d="M292.626,8.432a6.124,6.124,0,0,0-4.31-4.337c-3.8-1.025-19.043-1.025-19.043-1.025s-15.242,0-19.044,1.025a6.124,6.124,0,0,0-4.309,4.337C244.9,12.257,244.9,20.24,244.9,20.24s0,7.982,1.018,11.808a6.124,6.124,0,0,0,4.309,4.337c3.8,1.025,19.044,1.025,19.044,1.025s15.242,0,19.043-1.025a6.124,6.124,0,0,0,4.31-4.337c1.018-3.826,1.018-11.808,1.018-11.808s0-7.982-1.018-11.808M264.287,27.487V12.992l12.74,7.247Z" transform="translate(-244.901 -3.069)" fill="#ededeb"/>
</svg>
