<svg id="Group_34" data-name="Group 34" xmlns="http://www.w3.org/2000/svg" width="32.269" height="32.413" viewBox="0 0 32.269 32.413">
  <path id="Path_104" data-name="Path 104" d="M137.056,25.476a12.174,12.174,0,0,1,.965-1.469,2.941,2.941,0,0,1,2.3-.978q4.212-.006,8.425,0a3.241,3.241,0,1,1,0,6.48c-2.712,0-5.425-.013-8.136.007a3.333,3.333,0,0,1-3.378-2.171,2.032,2.032,0,0,0-.18-.283Z" transform="translate(-137.056 -14.383)" fill="#ededeb"/>
  <path id="Path_105" data-name="Path 105" d="M187.675,44.9c-.1.18-.205.358-.3.542a3.172,3.172,0,0,1-2.973,1.9c-2.829.024-5.658.017-8.488,0a3.238,3.238,0,1,1,0-6.476c2.805-.013,5.611-.008,8.416,0a3.2,3.2,0,0,1,3.216,2.443c.017.057.085.1.13.148Z" transform="translate(-155.406 -23.576)" fill="#ededeb"/>
  <path id="Path_106" data-name="Path 106" d="M178.991,17.574a3.232,3.232,0,0,1-3.04,2.742,3.181,3.181,0,0,1-3.188-2.3,4.429,4.429,0,0,1-.132-1.207c-.011-2.689-.008-5.378-.005-8.067A3.155,3.155,0,0,1,175.052,5.3c.033-.012.049-.072.073-.11h1.3a3.362,3.362,0,0,1,2.569,2.743c0,.189.007.379.011.568V17Z" transform="translate(-155.39 -5.189)" fill="#ededeb"/>
  <path id="Path_107" data-name="Path 107" d="M157.369,55.99a9.988,9.988,0,0,1-1.092-.594,3.036,3.036,0,0,1-1.334-2.149,2.618,2.618,0,0,0,.115-.54q.011-4.281,0-8.56a2.633,2.633,0,0,0-.115-.541,3.243,3.243,0,0,1,3.047-2.742,3.184,3.184,0,0,1,3.179,2.31,4.429,4.429,0,0,1,.132,1.2q.016,4.028,0,8.057a3.164,3.164,0,0,1-2.424,3.444c-.033.013-.049.072-.073.11Z" transform="translate(-146.277 -23.577)" fill="#ededeb"/>
  <path id="Path_108" data-name="Path 108" d="M196.811,27.057a12.094,12.094,0,0,1-.907,1.416,2.976,2.976,0,0,1-2.352,1.031c-1.006.007-2.013,0-3.019-.008a.317.317,0,0,1-.114-.044,32.976,32.976,0,0,1,.028-3.709,3.088,3.088,0,0,1,2.963-2.72,3.194,3.194,0,0,1,3.272,2.451c.016.055.085.1.129.143Z" transform="translate(-164.542 -14.38)" fill="#ededeb"/>
  <path id="Path_109" data-name="Path 109" d="M158.628,5.19a10.447,10.447,0,0,1,1.494.77,2.633,2.633,0,0,1,1.111,2.086c.041,1.173.01,2.349.01,3.69a36.455,36.455,0,0,1-4.134-.253,3.024,3.024,0,0,1-2.239-3.053,3.219,3.219,0,0,1,2.234-3.091c.127-.039.247-.1.37-.149Z" transform="translate(-146.239 -5.189)" fill="#ededeb"/>
  <path id="Path_110" data-name="Path 110" d="M137.056,43.6a3.5,3.5,0,0,1,1.771-2.211,4.071,4.071,0,0,1,1.4-.235c1.066-.033,2.134-.011,3.206-.011a33.541,33.541,0,0,1-.027,3.665,3.071,3.071,0,0,1-2.855,2.674,3.252,3.252,0,0,1-3.242-2.018c-.08-.191-.171-.379-.256-.568Z" transform="translate(-137.056 -23.719)" fill="#ededeb"/>
  <path id="Path_111" data-name="Path 111" d="M175.134,65.154c-.187-.092-.373-.186-.561-.275a3.015,3.015,0,0,1-1.911-2.72c-.047-1.124-.01-2.25-.01-3.47a16.249,16.249,0,0,1,4.2.171,3.129,3.129,0,0,1,2.182,3.047A3.22,3.22,0,0,1,176.8,65c-.125.042-.245.1-.368.154Z" transform="translate(-155.399 -32.741)" fill="#ededeb"/>
</svg>
